<?xml version="1.0" encoding="UTF-8"?>
<svg version="1.1" xmlns="http://www.w3.org/2000/svg" width="800" height="800">
    <path d="M0 0 C264 0 528 0 800 0 C800 264 800 528 800 800 C536 800 272 800 0 800 C0 536 0 272 0 0 Z " fill="#FEFEFE"
          transform="translate(0,0)"/>
    <path d="M0 0 C34.65 0 69.3 0 105 0 C105 0.66 105 1.32 105 2 C106.65 2.33 108.3 2.66 110 3 C110 28.41 110 53.82 110 80 C86.9 80 63.8 80 40 80 C40 87.26 40 94.52 40 102 C71.02 102 102.04 102 134 102 C134 68.34 134 34.68 134 0 C145.88 0 157.76 0 170 0 C170 0.99 170 1.98 170 3 C171.32 3 172.64 3 174 3 C174 54.15 174 105.3 174 158 C166 162 166 162 163 162 C163 162.66 163 163.32 163 164 C160.36 164 157.72 164 155 164 C154.67 164.99 154.34 165.98 154 167 C151.29120665 168.35439668 148.99066732 168.06501451 146 168 C146 168.66 146 169.32 146 170 C143.36 170 140.72 170 138 170 C138 168.68 138 167.36 138 166 C137.01 166 136.02 166 135 166 C134.67 155.77 134.34 145.54 134 135 C130.39626465 134.9906543 126.7925293 134.98130859 123.07958984 134.97167969 C111.17718934 134.93792316 99.27495617 134.88258259 87.37270164 134.81609726 C80.15585336 134.77631195 72.93911404 134.74391696 65.72216797 134.72900391 C59.43081556 134.71598465 53.13970294 134.68901335 46.84848559 134.64538693 C43.51819627 134.62277768 40.18826709 134.60917005 36.85789108 134.60811615 C33.13715293 134.60575435 29.41735394 134.57873543 25.69677734 134.54589844 C24.59626038 134.5509288 23.49574341 134.55595917 22.36187744 134.56114197 C16.24611185 134.47755457 12.67643558 134.04916217 8 130 C7.39671875 129.484375 6.7934375 128.96875 6.171875 128.4375 C5.70265625 127.963125 5.2334375 127.48875 4.75 127 C4.27046875 126.525625 3.7909375 126.05125 3.296875 125.5625 C-0.04475597 121.53643859 -0.24542405 118.20958186 -0.22705078 113.02832031 C-0.22729185 112.32407299 -0.22753292 111.61982567 -0.2277813 110.89423752 C-0.22629244 108.62207002 -0.21107964 106.35023355 -0.1953125 104.078125 C-0.19237073 102.67236489 -0.19033111 101.26660259 -0.18920898 99.86083984 C-0.17873716 94.65719308 -0.15081465 89.45359327 -0.125 84.25 C-0.08375 72.6175 -0.0425 60.985 0 49 C23.43 49 46.86 49 71 49 C71 43.39 71 37.78 71 32 C48.89 32 26.78 32 4 32 C3.67 30.68 3.34 29.36 3 28 C2.01 28 1.02 28 0 28 C0 18.76 0 9.52 0 0 Z "
          fill="#E00112" transform="translate(532,306)"/>
    <path d="M0 0 C35.31 0 70.62 0 107 0 C107 0.99 107 1.98 107 3 C108.65 3 110.3 3 112 3 C112 12.24 112 21.48 112 31 C87.91 31 63.82 31 39 31 C39.33 54.1 39.66 77.2 40 101 C70.69 101 101.38 101 133 101 C133.33 67.67 133.66 34.34 134 0 C168 0 168 0 174 2 C174 19.49 174 36.98 174 55 C179.94 55 185.88 55 192 55 C192 55.99 192 56.98 192 58 C193.32 58 194.64 58 196 58 C196 67.57 196 77.14 196 87 C188.74 87 181.48 87 174 87 C174.01047363 89.07974121 174.02094727 91.15948242 174.03173828 93.30224609 C174.06483502 100.16341811 174.08695244 107.02459359 174.10362434 113.8858242 C174.11407446 118.04697253 174.12825592 122.20803926 174.15087891 126.36914062 C174.17256371 130.38266429 174.18455937 134.39610933 174.18975449 138.40968704 C174.19345811 139.94314436 174.20069011 141.47659724 174.21146011 143.01002121 C174.22591729 145.15309801 174.2279804 147.29584736 174.22705078 149.43896484 C174.231492 150.66030121 174.23593323 151.88163757 174.24050903 153.13998413 C174 156 174 156 172 158 C170.39737123 158.49099104 168.7910615 158.97224769 167.17089844 159.40185547 C162.76935797 160.6146056 158.45547836 162.11999862 154.125 163.5625 C152.68253906 164.03719727 152.68253906 164.03719727 151.2109375 164.52148438 C150.29828125 164.82505859 149.385625 165.12863281 148.4453125 165.44140625 C147.61531738 165.71670166 146.78532227 165.99199707 145.93017578 166.27563477 C144.02229018 166.83985121 144.02229018 166.83985121 143 168 C141.33382885 168.04063832 139.66611905 168.042721 138 168 C138 166.68 138 165.36 138 164 C136.68 164 135.36 164 134 164 C134 154.1 134 144.2 134 134 C130.34091553 134.0314209 126.68183105 134.0628418 122.91186523 134.09521484 C110.82206859 134.19463474 98.73230052 134.26121463 86.64221096 134.31087303 C79.31196156 134.3417827 71.98210002 134.38390686 64.65209961 134.45263672 C58.26161038 134.51252856 51.8714021 134.55117018 45.48063999 134.56453097 C42.09807708 134.5723386 38.71631776 134.59062482 35.33401299 134.63438034 C31.55348955 134.67794029 27.77463051 134.68393374 23.99389648 134.68115234 C22.87827332 134.702724 21.76265015 134.72429565 20.61322021 134.746521 C15.37230327 134.7048021 11.98141801 134.54759057 7.93788147 131.01992798 C7.43122483 130.48080088 6.9245682 129.94167377 6.40255833 129.38620949 C4.93694274 127.73344618 4.93694274 127.73344618 2 127 C-0.54030346 120.8850554 -0.2698888 114.72465559 -0.22705078 108.18969727 C-0.22734283 107.01824661 -0.22763489 105.84679596 -0.22793579 104.6398468 C-0.22654654 100.78195698 -0.21100409 96.92426218 -0.1953125 93.06640625 C-0.19158093 90.38597792 -0.18863621 87.70556027 -0.18673706 85.02513123 C-0.18053445 78.7000392 -0.16414024 72.37501677 -0.14403808 66.04995531 C-0.11944167 58.13813463 -0.10853169 50.22630252 -0.09765625 42.31445312 C-0.07820786 28.20958129 -0.03813843 14.10486117 0 0 Z "
          fill="#E00314" transform="translate(319,306)"/>
    <path d="M0 0 C56.1 0 112.2 0 170 0 C170 0.66 170 1.32 170 2 C171.98 2 173.96 2 176 2 C176.02886338 6.47915328 176.04675187 10.95828291 176.0625 15.4375 C176.07087891 16.71689453 176.07925781 17.99628906 176.08789062 19.31445312 C176.09111328 20.52939453 176.09433594 21.74433594 176.09765625 22.99609375 C176.10289307 24.12200928 176.10812988 25.2479248 176.11352539 26.40795898 C176 29 176 29 175 30 C173.26640402 30.09627113 171.52885354 30.12187568 169.79258728 30.12025452 C168.66371597 30.12162918 167.53484467 30.12300385 166.37176514 30.12442017 C165.12236145 30.12082489 163.87295776 30.11722961 162.58569336 30.11352539 C161.27856888 30.11367142 159.9714444 30.11381744 158.62471008 30.1139679 C155.02982901 30.11425586 151.43498103 30.10835928 147.84010768 30.10139394 C144.08713748 30.09516026 140.3341666 30.09455659 136.58119202 30.09336853 C129.46969174 30.09025526 122.35820675 30.08204192 115.24671322 30.07201904 C107.15252934 30.06085778 99.05834474 30.05534742 90.96415508 30.05032361 C74.30942775 30.03985931 57.65471582 30.02225994 41 30 C41 30.66 41 31.32 41 32 C83.57 32 126.14 32 170 32 C170 32.99 170 33.98 170 35 C171.98 35 173.96 35 176 35 C176 43.25 176 51.5 176 60 C174.68 60.33 173.36 60.66 172 61 C172 61.66 172 62.32 172 63 C172.99 63.33 173.98 63.66 175 64 C175 72.58 175 81.16 175 90 C154.09456983 90.0462859 133.189152 90.0819831 112.28368092 90.10362434 C102.57704233 90.11393956 92.87043615 90.12800459 83.16381836 90.15087891 C74.70412811 90.17080526 66.24446132 90.18371466 57.78474826 90.18817699 C53.30486724 90.19078564 48.82505337 90.19692225 44.34519386 90.21146011 C40.12882782 90.22503208 35.91255662 90.22922341 31.69617081 90.22621536 C30.1485982 90.2267657 28.60102243 90.23074545 27.0534687 90.23841095 C24.9400144 90.24836626 22.82691784 90.24596688 20.7134552 90.24050903 C19.5307948 90.24235262 18.3481344 90.24419621 17.12963581 90.24609566 C12.75254052 89.90190732 10.00087105 88.8656182 6.6875 86 C5 84 5 84 5 82 C4.34 82 3.68 82 3 82 C2.01 81.01 1.02 80.02 0 79 C0 52.93 0 26.86 0 0 Z "
          fill="#DF0111" transform="translate(104,306)"/>
    <path d="M0 0 C59.73 0 119.46 0 181 0 C181 0.99 181 1.98 181 3 C182.32 3 183.64 3 185 3 C185 12.24 185 21.48 185 31 C160.58 31 136.16 31 111 31 C111 40.57 111 50.14 111 60 C110.01 60.99 109.02 61.98 108 63 C107.01 63 106.02 63 105 63 C105 63.66 105 64.32 105 65 C101.37645041 66.49204983 97.72470596 67.78376948 94 69 C93.01 69.37125 92.02 69.7425 91 70.125 C87.85125882 71.04338284 85.26141197 71.15530533 82 71 C82 71.66 82 72.32 82 73 C80.02 73 78.04 73 76 73 C76 71.68 76 70.36 76 69 C74.02 68.505 74.02 68.505 72 68 C72 55.79 72 43.58 72 31 C49.23 31 26.46 31 3 31 C3 29.68 3 28.36 3 27 C2.01 27 1.02 27 0 27 C0 18.09 0 9.18 0 0 Z "
          fill="#E00112" transform="translate(99,403)"/>
    <path d="M0 0 C34.65 0 69.3 0 105 0 C105 0.66 105 1.32 105 2 C106.65 2.33 108.3 2.66 110 3 C110 28.41 110 53.82 110 80 C86.9 80 63.8 80 40 80 C40 87.26 40 94.52 40 102 C71.02 102 102.04 102 134 102 C134 68.34 134 34.68 134 0 C145.88 0 157.76 0 170 0 C169.67 0.66 169.34 1.32 169 2 C158.11 1.67 147.22 1.34 136 1 C136 34.66 136 68.32 136 103 C119.37625 103.020625 102.7525 103.04125 85.625 103.0625 C80.37029785 103.071604 75.1155957 103.08070801 69.70166016 103.09008789 C63.29956055 103.09460449 63.29956055 103.09460449 60.30526733 103.09544373 C58.20785307 103.09698228 56.11043971 103.10050539 54.01303101 103.10557556 C50.84151668 103.11286091 47.67005655 103.11390715 44.49853516 103.11352539 C43.55952677 103.1171235 42.62051838 103.12072161 41.65305519 103.12442875 C40.80225065 103.12305125 39.95144611 103.12167376 39.07485962 103.12025452 C38.33189447 103.12117631 37.58892933 103.1220981 36.82345009 103.12304783 C35 103 35 103 33 102 C32.94205188 97.72922344 32.90642126 93.45854764 32.875 89.1875 C32.85824219 87.97255859 32.84148438 86.75761719 32.82421875 85.50585938 C32.81455078 83.76079102 32.81455078 83.76079102 32.8046875 81.98046875 C32.78897705 80.37014771 32.78897705 80.37014771 32.77294922 78.72729492 C33 76 33 76 35 73 C37.78408813 72.63923645 37.78408813 72.63923645 41.37744141 72.65942383 C42.04179892 72.65906222 42.70615643 72.65870062 43.39064598 72.65832806 C45.54458969 72.66057015 47.69775785 72.68342754 49.8515625 72.70703125 C51.16664795 72.71005249 52.4817334 72.71307373 53.83666992 72.71618652 C58.7661927 72.73192538 63.69560394 72.77380898 68.625 72.8125 C85.145625 72.9053125 85.145625 72.9053125 102 73 C102 49.9 102 26.8 102 3 C85.36616455 3.14881006 85.36616455 3.14881006 68.73242188 3.30664062 C61.95078727 3.37299291 55.16915391 3.4382763 48.38745117 3.49731445 C42.92150121 3.54496412 37.4556147 3.59730726 31.98974037 3.65294075 C29.90171191 3.67336155 27.81366604 3.69207509 25.72560692 3.70907402 C22.80683461 3.733124 19.88818248 3.76317792 16.96948242 3.79467773 C16.10129883 3.8004332 15.23311523 3.80618866 14.33862305 3.81211853 C10.98487367 3.85341035 8.20299977 3.93233341 5 5 C4.34 4.67 3.68 4.34 3 4 C3 10.93 3 17.86 3 25 C25.77 25 48.54 25 72 25 C73.37108712 33.2265227 73 41.66000266 73 50 C48.91 50 24.82 50 0 50 C0 49.67 0 49.34 0 49 C23.43 49 46.86 49 71 49 C71 43.39 71 37.78 71 32 C48.89 32 26.78 32 4 32 C3.67 30.68 3.34 29.36 3 28 C2.01 28 1.02 28 0 28 C0 18.76 0 9.52 0 0 Z "
          fill="#C2282F" transform="translate(532,306)"/>
    <path d="M0 0 C59.73 0 119.46 0 181 0 C181 0.99 181 1.98 181 3 C182.32 3 183.64 3 185 3 C185 12.24 185 21.48 185 31 C160.58 31 136.16 31 111 31 C111 40.57 111 50.14 111 60 C110.01 60.99 109.02 61.98 108 63 C107.01 63 106.02 63 105 63 C105 63.66 105 64.32 105 65 C101.37645041 66.49204983 97.72470596 67.78376948 94 69 C93.01 69.37125 92.02 69.7425 91 70.125 C87.85125882 71.04338284 85.26141197 71.15530533 82 71 C82 71.66 82 72.32 82 73 C80.02 73 78.04 73 76 73 C76 71.68 76 70.36 76 69 C74.02 68.505 74.02 68.505 72 68 C72 55.79 72 43.58 72 31 C49.23 31 26.46 31 3 31 C3 29.68 3 28.36 3 27 C2.01 27 1.02 27 0 27 C0 18.09 0 9.18 0 0 Z M2 4 C1.91348389 5.41570123 1.89295096 6.835595 1.90234375 8.25390625 C1.90556641 9.10791016 1.90878906 9.96191406 1.91210938 10.84179688 C1.92048828 11.73962891 1.92886719 12.63746094 1.9375 13.5625 C1.94201172 14.46419922 1.94652344 15.36589844 1.95117188 16.29492188 C1.96299777 18.53001634 1.98031755 20.76496493 2 23 C10.99205702 23.79342537 19.93244825 24.19088571 28.95703125 24.31640625 C30.22600754 24.33718735 31.49498383 24.35796844 32.80241394 24.37937927 C36.12799126 24.43314522 39.45358277 24.48354915 42.77923584 24.53222656 C46.19206277 24.58304042 49.60481573 24.63840935 53.01757812 24.69335938 C59.67832597 24.79970314 66.33913025 24.90160423 73 25 C74.60951543 28.21903085 74.24234748 31.74838832 74.31640625 35.2890625 C74.3475779 36.51669815 74.3475779 36.51669815 74.37937927 37.76913452 C74.44484812 40.38766966 74.50374726 43.00630639 74.5625 45.625 C74.60568776 47.39844807 74.64930214 49.17188581 74.69335938 50.9453125 C74.80052676 55.29677046 74.90180169 59.64833077 75 64 C76.66611905 64.042721 78.33382885 64.04063832 80 64 C80.33 63.67 80.66 63.34 81 63 C82.175625 62.87625 83.35125 62.7525 84.5625 62.625 C88.22661414 62.20699054 91.34240117 61.29839953 94.75 59.9140625 C98.13836334 58.53753989 101.57556621 57.28416267 105 56 C105.33 46.1 105.66 36.2 106 26 C141.64 25.505 141.64 25.505 178 25 C178 18.07 178 11.14 178 4 C174.51270153 2.83756718 171.79734951 2.8741141 168.11618042 2.87301636 C167.05983735 2.87067637 167.05983735 2.87067637 165.98215401 2.86828911 C163.61682503 2.86429289 161.25155996 2.86746341 158.88623047 2.87060547 C157.19285037 2.86925084 155.49947056 2.86747056 153.80609131 2.86529541 C149.2030355 2.86072908 144.60000206 2.86250718 139.99694586 2.8656745 C135.18742658 2.86820138 130.37790925 2.86585971 125.56838989 2.86428833 C117.49301814 2.86246795 109.41765552 2.86486987 101.34228516 2.86962891 C91.99291022 2.87507495 82.64355707 2.87330585 73.29418266 2.8678025 C65.27803513 2.86327202 57.26189417 2.86262039 49.24574578 2.86524117 C44.45307122 2.86680383 39.66040691 2.86699794 34.867733 2.86370468 C30.3649035 2.86082678 25.86210225 2.86280014 21.35927582 2.86859894 C19.70198488 2.86992682 18.04469159 2.86953195 16.38740158 2.86733627 C14.1348525 2.86462595 11.88239543 2.86800437 9.62985229 2.87301636 C8.3662834 2.87339338 7.1027145 2.87377041 5.80085564 2.87415886 C3.09495228 2.68016232 3.09495228 2.68016232 2 4 Z "
          fill="#C40E15" transform="translate(99,403)"/>
    <path d="M0 0 C0.66 0 1.32 0 2 0 C2 8.25 2 16.5 2 25 C0.02 25.495 0.02 25.495 -2 26 C-2 26.66 -2 27.32 -2 28 C-1.01 28.33 -0.02 28.66 1 29 C1 37.58 1 46.16 1 55 C-19.90543017 55.0462859 -40.810848 55.0819831 -61.71631908 55.10362434 C-71.42295767 55.11393956 -81.12956385 55.12800459 -90.83618164 55.15087891 C-99.29587189 55.17080526 -107.75553868 55.18371466 -116.21525174 55.18817699 C-120.69513276 55.19078564 -125.17494663 55.19692225 -129.65480614 55.21146011 C-133.87117218 55.22503208 -138.08744338 55.22922341 -142.30382919 55.22621536 C-143.8514018 55.2267657 -145.39897757 55.23074545 -146.9465313 55.23841095 C-149.0599856 55.24836626 -151.17308216 55.24596688 -153.2865448 55.24050903 C-154.4692052 55.24235262 -155.6518656 55.24419621 -156.87036419 55.24609566 C-161.24745948 54.90190732 -163.99912895 53.8656182 -167.3125 51 C-169 49 -169 49 -169 47 C-169.66 47 -170.32 47 -171 47 C-171 46.34 -171 45.68 -171 45 C-169.0625 45.3125 -169.0625 45.3125 -167 46 C-166.67 46.99 -166.34 47.98 -166 49 C-113.2 49 -60.4 49 -6 49 C-6 43.06 -6 37.12 -6 31 C-5.67 30.34 -5.34 29.68 -5 29 C-47.57 29 -90.14 29 -134 29 C-134 27.35 -134 25.7 -134 24 C-89.78 24 -45.56 24 0 24 C0 16.08 0 8.16 0 0 Z "
          fill="#C31D25" transform="translate(278,341)"/>
    <path d="M0 0 C56.1 0 112.2 0 170 0 C170 0.66 170 1.32 170 2 C171.98 2 173.96 2 176 2 C176.02886338 6.47915328 176.04675187 10.95828291 176.0625 15.4375 C176.07087891 16.71689453 176.07925781 17.99628906 176.08789062 19.31445312 C176.09111328 20.52939453 176.09433594 21.74433594 176.09765625 22.99609375 C176.10289307 24.12200928 176.10812988 25.2479248 176.11352539 26.40795898 C176 29 176 29 175 30 C173.26640402 30.09627113 171.52885354 30.12187568 169.79258728 30.12025452 C168.66371597 30.12162918 167.53484467 30.12300385 166.37176514 30.12442017 C165.12236145 30.12082489 163.87295776 30.11722961 162.58569336 30.11352539 C161.27856888 30.11367142 159.9714444 30.11381744 158.62471008 30.1139679 C155.02982901 30.11425586 151.43498103 30.10835928 147.84010768 30.10139394 C144.08713748 30.09516026 140.3341666 30.09455659 136.58119202 30.09336853 C129.46969174 30.09025526 122.35820675 30.08204192 115.24671322 30.07201904 C107.15252934 30.06085778 99.05834474 30.05534742 90.96415508 30.05032361 C74.30942775 30.03985931 57.65471582 30.02225994 41 30 C41 30.66 41 31.32 41 32 C83.57 32 126.14 32 170 32 C170 32.66 170 33.32 170 34 C167.44144574 35.27927713 165.64068414 35.12586568 162.775177 35.12698364 C161.66753998 35.12980347 160.55990295 35.13262329 159.41870117 35.13552856 C158.19787842 35.13350433 156.97705566 35.1314801 155.71923828 35.12939453 C153.79723099 35.13202301 153.79723099 35.13202301 151.83639526 35.13470459 C148.31568668 35.13927358 144.79500731 35.13749131 141.27429819 35.1343255 C137.59260382 35.13179807 133.91091199 35.13414062 130.22921753 35.13571167 C124.04359487 35.1375327 117.85798413 35.13512928 111.67236328 35.13037109 C104.52080265 35.1249334 97.36927055 35.12668781 90.21771061 35.1321975 C84.08092572 35.13673625 77.94414942 35.13737529 71.80736339 35.13475883 C68.14078801 35.13319964 64.47422604 35.13299241 60.80765152 35.13629532 C56.71826745 35.13972148 52.62893248 35.13497179 48.53955078 35.12939453 C47.32277649 35.13141876 46.1060022 35.13344299 44.85235596 35.13552856 C43.73907928 35.13270874 42.62580261 35.12988892 41.47879028 35.12698364 C40.5116617 35.12660662 39.54453312 35.12622959 38.54809761 35.12584114 C36.21456981 35.01059681 34.23253305 34.66274387 32 34 C31.75 26.375 31.75 26.375 34 23 C36.32320595 22.63085651 36.32320595 22.63085651 39.28970337 22.63923645 C40.9724511 22.63305046 40.9724511 22.63305046 42.68919373 22.6267395 C44.54388023 22.64291824 44.54388023 22.64291824 46.43603516 22.65942383 C47.73355209 22.65898575 49.03106903 22.65854767 50.36790466 22.65809631 C53.93184596 22.65723348 57.49548604 22.67490548 61.05935717 22.69581819 C64.78161128 22.71453719 68.50387185 22.71633164 72.22616577 22.71989441 C79.27748506 22.72922897 86.32866526 22.75386172 93.37992322 22.78394288 C101.40639944 22.81744311 109.43288221 22.83396186 117.45941091 22.84902918 C133.9730221 22.88041014 150.48649332 22.9331979 167 23 C167.03758423 22.10692139 167.03758423 22.10692139 167.07592773 21.19580078 C167.19177494 18.50530864 167.31455196 15.8151766 167.4375 13.125 C167.47681641 12.18785156 167.51613281 11.25070312 167.55664062 10.28515625 C167.59853516 9.38925781 167.64042969 8.49335938 167.68359375 7.5703125 C167.73858032 6.32918701 167.73858032 6.32918701 167.79467773 5.06298828 C168 3 168 3 169 1 C113.56 1 58.12 1 1 1 C1 26.74 1 52.48 1 79 C0.67 79 0.34 79 0 79 C0 52.93 0 26.86 0 0 Z "
          fill="#BD252B" transform="translate(104,306)"/>
    <path d="M0 0 C1.65 0 3.3 0 5 0 C5 51.15 5 102.3 5 155 C-3 159 -3 159 -6 159 C-6 159.66 -6 160.32 -6 161 C-8.64 161 -11.28 161 -14 161 C-14.33 161.99 -14.66 162.98 -15 164 C-17.70879335 165.35439668 -20.00933268 165.06501451 -23 165 C-23 165.66 -23 166.32 -23 167 C-25.64 167 -28.28 167 -31 167 C-31 165.68 -31 164.36 -31 163 C-31.99 163 -32.98 163 -34 163 C-34.33 152.77 -34.66 142.54 -35 132 C-38.60373535 131.9906543 -42.2074707 131.98130859 -45.92041016 131.97167969 C-57.82281066 131.93792316 -69.72504383 131.88258259 -81.62729836 131.81609726 C-88.84414664 131.77631195 -96.06088596 131.74391696 -103.27783203 131.72900391 C-109.56918444 131.71598465 -115.86029706 131.68901335 -122.15151441 131.64538693 C-125.48180373 131.62277768 -128.81173291 131.60917005 -132.14210892 131.60811615 C-135.86284707 131.60575435 -139.58264606 131.57873543 -143.30322266 131.54589844 C-144.40373962 131.5509288 -145.50425659 131.55595917 -146.63812256 131.56114197 C-152.73582513 131.47780145 -156.36629911 131.09067564 -161 127 C-162.875 124.75 -162.875 124.75 -164 123 C-163.15953345 123.24357144 -163.15953345 123.24357144 -162.30208778 123.49206352 C-159.84809136 124.03351737 -157.67848353 124.12585857 -155.16659546 124.12698364 C-154.19635941 124.12980347 -153.22612335 124.13262329 -152.22648621 124.13552856 C-151.16867447 124.13350433 -150.11086273 124.1314801 -149.02099609 124.12939453 C-147.90196396 124.13114685 -146.78293182 124.13289917 -145.62998962 124.13470459 C-141.92778985 124.13910924 -138.22563776 124.13619036 -134.5234375 124.1328125 C-131.95561718 124.13348584 -129.38779691 124.13445612 -126.81997681 124.13571167 C-121.438246 124.13718668 -116.05653317 124.13513518 -110.67480469 124.13037109 C-104.44906179 124.12492358 -98.22335161 124.126696 -91.9976095 124.1321975 C-86.01004545 124.13727705 -80.02249744 124.13674628 -74.03493118 124.13381577 C-71.48553081 124.1331469 -68.9361296 124.13397351 -66.38673019 124.13629532 C-62.83120226 124.13882309 -59.27573801 124.1349797 -55.72021484 124.12939453 C-54.65835464 124.13141876 -53.59649445 124.13344299 -52.50245667 124.13552856 C-51.53786026 124.13270874 -50.57326385 124.12988892 -49.57943726 124.12698364 C-48.73842657 124.12660662 -47.89741589 124.12622959 -47.03092003 124.12584114 C-44.93136769 124.12861825 -44.93136769 124.12861825 -43 123 C-43 123.66 -43 124.32 -43 125 C-41.93458984 125.07347656 -41.93458984 125.07347656 -40.84765625 125.1484375 C-39.92855469 125.22320312 -39.00945312 125.29796875 -38.0625 125.375 C-37.14597656 125.44460938 -36.22945312 125.51421875 -35.28515625 125.5859375 C-34.53105469 125.72257812 -33.77695312 125.85921875 -33 126 C-31.52793987 128.94412027 -31.76192808 131.96285915 -31.68359375 135.1953125 C-31.66281265 135.90275604 -31.64203156 136.61019958 -31.62062073 137.33908081 C-31.55518922 139.60095425 -31.49627026 141.86294462 -31.4375 144.125 C-31.39430867 145.65756422 -31.35069418 147.19011657 -31.30664062 148.72265625 C-31.19951445 152.48165073 -31.0982291 156.24076292 -31 160 C-28.53929884 159.38332793 -26.08173479 158.75711607 -23.625 158.125 C-22.92632813 157.95097656 -22.22765625 157.77695312 -21.5078125 157.59765625 C-17.35125264 156.55854726 -17.35125264 156.55854726 -14 154 C-11.99403108 153.56954664 -9.96880339 153.22561097 -7.9375 152.9375 C-4.15136337 152.68732529 -4.15136337 152.68732529 -1 151 C-0.89110269 149.05139494 -0.8531 147.09881426 -0.84178162 145.14720154 C-0.8319928 143.87528961 -0.82220398 142.60337769 -0.81211853 141.29292297 C-0.80621356 139.87033119 -0.80040317 138.44773901 -0.79467773 137.02514648 C-0.78510465 135.53733037 -0.77509491 134.049517 -0.76467896 132.56170654 C-0.73756208 128.51025963 -0.71658937 124.45880098 -0.69667697 120.40731311 C-0.6748591 116.17785661 -0.64744994 111.94843654 -0.62062073 107.7190094 C-0.57063688 99.7044292 -0.52571924 91.68982884 -0.48259836 83.67520911 C-0.43327453 74.55320729 -0.37833846 65.43124201 -0.32291877 56.30927551 C-0.20901138 37.53955091 -0.10219151 18.76979186 0 0 Z "
          fill="#CA0A16" transform="translate(701,309)"/>
    <path d="M0 0 C34.98 0 69.96 0 106 0 C106 0.66 106 1.32 106 2 C107.65 2 109.3 2 111 2 C111 11.24 111 20.48 111 30 C86.91 30 62.82 30 38 30 C38 53.1 38 76.2 38 100 C35.69 100 33.38 100 31 100 C29.54766073 97.09532147 29.85662213 94.54769479 29.83886719 91.30297852 C29.83390228 90.61500183 29.82893738 89.92702515 29.82382202 89.21820068 C29.80919618 86.93842577 29.80239826 84.6587204 29.796875 82.37890625 C29.79112454 80.79711403 29.7853668 79.21532183 29.77960205 77.63352966 C29.76909131 74.31549758 29.76324891 70.99748975 29.75976562 67.67944336 C29.7542762 63.42432948 29.73023919 59.16953485 29.70179367 54.91452122 C29.68318723 51.64689695 29.6779628 48.37934995 29.67642975 45.11167717 C29.6733989 43.54275705 29.66535585 41.97383843 29.65224457 40.40497017 C29.63522269 38.21187012 29.63705417 36.01955499 29.64355469 33.82641602 C29.63990906 32.57780289 29.63626343 31.32918976 29.63250732 30.04273987 C30 27 30 27 31.09364319 25.09463501 C34.01561132 23.41683336 36.50827778 23.64163687 39.8581543 23.65942383 C40.55109589 23.65898575 41.24403748 23.65854767 41.95797729 23.65809631 C44.24701168 23.66018535 46.53531242 23.68352074 48.82421875 23.70703125 C50.41176452 23.71262682 51.99931548 23.7168971 53.58686829 23.71989441 C57.76435663 23.73134632 61.94153183 23.76081627 66.11889648 23.79400635 C70.38195561 23.82469989 74.64506535 23.8383982 78.90820312 23.85351562 C87.2722951 23.88568589 95.63607252 23.93845644 104 24 C103.67 16.74 103.34 9.48 103 2 C69.67 1.67 36.34 1.34 2 1 C1.9098777 22.47388548 1.9098777 22.47388548 1.8492384 43.94779778 C1.83261383 51.62752724 1.81150737 59.30715896 1.77368164 66.98681641 C1.74054785 73.71709977 1.7231491 80.44725548 1.71536827 87.17762375 C1.70982289 89.74606364 1.69899425 92.31449772 1.68280983 94.88289261 C1.66105037 98.47885934 1.65803254 102.07438824 1.65942383 105.67041016 C1.648638 106.73352417 1.63785217 107.79663818 1.6267395 108.89196777 C1.64994153 114.42968906 2.03255971 118.149834 5 123 C5 123.66 5 124.32 5 125 C4.01 125 3.02 125 2 125 C-0.22300161 118.74613486 -0.27103859 112.96924508 -0.22705078 106.37329102 C-0.22734283 105.2213475 -0.22763489 104.06940399 -0.22793579 102.8825531 C-0.22654674 99.08959317 -0.21100525 95.2968317 -0.1953125 91.50390625 C-0.19158087 88.86832283 -0.1887346 86.23273802 -0.18673706 83.59715271 C-0.18053492 77.37830801 -0.16414135 71.1595341 -0.14403808 64.9407205 C-0.11943999 57.16166582 -0.10853132 49.38259952 -0.09765625 41.60351562 C-0.07820893 27.73562202 -0.03813933 13.86788276 0 0 Z "
          fill="#C9030C" transform="translate(320,307)"/>
    <path d="M0 0 C34 0 34 0 40 2 C40 19.49 40 36.98 40 55 C45.94 55 51.88 55 58 55 C58 55.99 58 56.98 58 58 C59.32 58 60.64 58 62 58 C62 67.57 62 77.14 62 87 C54.74 87 47.48 87 40 87 C40.01571045 90.11961182 40.01571045 90.11961182 40.03173828 93.30224609 C40.06483502 100.16341811 40.08695244 107.02459359 40.10362434 113.8858242 C40.11407446 118.04697253 40.12825592 122.20803926 40.15087891 126.36914062 C40.17256371 130.38266429 40.18455937 134.39610933 40.18975449 138.40968704 C40.19345811 139.94314436 40.20069011 141.47659724 40.21146011 143.01002121 C40.22591729 145.15309801 40.2279804 147.29584736 40.22705078 149.43896484 C40.231492 150.66030121 40.23593323 151.88163757 40.24050903 153.13998413 C40 156 40 156 38 158 C36.39737123 158.49099104 34.7910615 158.97224769 33.17089844 159.40185547 C28.76935797 160.6146056 24.45547836 162.11999862 20.125 163.5625 C18.68253906 164.03719727 18.68253906 164.03719727 17.2109375 164.52148438 C16.29828125 164.82505859 15.385625 165.12863281 14.4453125 165.44140625 C13.61531738 165.71670166 12.78532227 165.99199707 11.93017578 166.27563477 C10.02229018 166.83985121 10.02229018 166.83985121 9 168 C7.33382885 168.04063832 5.66611905 168.042721 4 168 C4 166.68 4 165.36 4 164 C11.92 162.02 11.92 162.02 20 160 C20 159.34 20 158.68 20 158 C20.92683594 157.66226563 21.85367187 157.32453125 22.80859375 156.9765625 C24.00613281 156.53054688 25.20367187 156.08453125 26.4375 155.625 C27.63246094 155.18414062 28.82742188 154.74328125 30.05859375 154.2890625 C33.10196898 153.32914764 33.10196898 153.32914764 34 151 C34.11031923 148.91748171 34.15651376 146.83146215 34.17358398 144.74609375 C34.18707382 143.43133057 34.20056366 142.11656738 34.21446228 140.76196289 C34.21952223 140.05733917 34.22458218 139.35271545 34.22979546 138.6267395 C34.24618814 136.42482074 34.26942363 134.22307392 34.29469299 132.02124023 C34.36552711 125.76066628 34.42567604 119.50002314 34.47680664 113.23925781 C34.50854838 109.41134852 34.54980812 105.58363835 34.59700203 101.75588989 C34.61304758 100.29504975 34.62535732 98.83416373 34.63390923 97.3732605 C34.64602477 95.33340325 34.67120301 93.29363609 34.69702148 91.25390625 C34.70732895 90.09189697 34.71763641 88.9298877 34.72825623 87.73266602 C35 85 35 85 37 83 C39.06298828 82.77294922 39.06298828 82.77294922 41.5703125 82.8046875 C42.37742676 82.80968262 43.18454102 82.81467773 44.01611328 82.81982422 C45.0420459 82.83803223 46.06797852 82.85624023 47.125 82.875 C52.013125 82.936875 52.013125 82.936875 57 83 C57 74.09 57 65.18 57 56 C49.84970177 56.07909306 49.84970177 56.07909306 42.69970703 56.18017578 C41.81138184 56.1851709 40.92305664 56.19016602 40.0078125 56.1953125 C38.64100342 56.21102295 38.64100342 56.21102295 37.24658203 56.22705078 C35 56 35 56 33 54 C32.75949097 51.74740601 32.75949097 51.74740601 32.77294922 48.90771484 C32.77310028 47.84676605 32.77325134 46.78581726 32.77340698 45.69271851 C32.78889084 43.96923691 32.78889084 43.96923691 32.8046875 42.2109375 C32.8075174 41.03737701 32.81034729 39.86381653 32.81326294 38.6546936 C32.82448645 34.89469338 32.84959508 31.13492861 32.875 27.375 C32.88502699 24.8307326 32.89415332 22.28646148 32.90234375 19.7421875 C32.92273396 13.49462728 32.96187918 7.24757818 33 1 C22.44 1 11.88 1 1 1 C1 34 1 67 1 101 C0.67 101 0.34 101 0 101 C0 67.67 0 34.34 0 0 Z "
          fill="#472B2B" transform="translate(453,306)"/>
    <path d="M0 0 C35.97 0 71.94 0 109 0 C109 1.32 109 2.64 109 4 C110.32 4 111.64 4 113 4 C113 14.23 113 24.46 113 35 C89.24 35 65.48 35 41 35 C41 57.11 41 79.22 41 102 C70.7 102 100.4 102 131 102 C130.98839844 94.72066406 130.97679687 87.44132812 130.96484375 79.94140625 C130.95973714 75.34309807 130.95492338 70.74479337 130.95117188 66.14648438 C130.94518285 58.84008055 130.93808098 51.5336892 130.92456055 44.22729492 C130.91373363 38.33994853 130.90772358 32.45261551 130.90512276 26.56525993 C130.90326815 24.31367723 130.89964687 22.06209531 130.89426994 19.81051826 C130.88706211 16.66866573 130.88600895 13.52686917 130.88647461 10.38500977 C130.88287933 9.44418045 130.87928406 8.50335114 130.87557983 7.53401184 C130.88594784 1.11405216 130.88594784 1.11405216 132 0 C134.8843382 -0.08865208 137.74462158 -0.11521296 140.62890625 -0.09765625 C141.92525246 -0.09553383 141.92525246 -0.09553383 143.24778748 -0.09336853 C146.01939292 -0.08775239 148.7909188 -0.07519719 151.5625 -0.0625 C153.4368478 -0.05748708 155.31119685 -0.05292381 157.18554688 -0.04882812 C161.79039544 -0.03777772 166.39518421 -0.0205023 171 0 C171 0.99 171 1.98 171 3 C171.99 3.33 172.98 3.66 174 4 C172.33388095 4.042721 170.66617115 4.04063832 169 4 C168.67 3.67 168.34 3.34 168 3 C165.48119483 2.84011509 162.98657734 2.74065775 160.46484375 2.68359375 C159.33496788 2.6524221 159.33496788 2.6524221 158.18226624 2.62062073 C155.7674401 2.55504575 153.35250202 2.49620379 150.9375 2.4375 C149.30402471 2.3943223 147.6705609 2.35070827 146.03710938 2.30664062 C142.02485536 2.19935638 138.01248836 2.09811179 134 2 C134.00222061 3.26311508 134.00444122 4.52623016 134.00672913 5.82762146 C134.02695836 17.70323839 134.04197108 29.57885186 134.05181217 41.45448208 C134.05704156 47.56056369 134.0641402 53.66663144 134.07543945 59.77270508 C134.08626637 65.66005147 134.09227642 71.54738449 134.09487724 77.43474007 C134.09673185 79.68632277 134.10035313 81.93790469 134.10573006 84.18948174 C134.11293789 87.33133427 134.11399105 90.47313083 134.11352539 93.61499023 C134.11712067 94.55581955 134.12071594 95.49664886 134.12442017 96.46598816 C134.11405216 102.88594784 134.11405216 102.88594784 133 104 C130.11393984 104.10056691 127.25177425 104.13615375 124.36523438 104.12939453 C123.45961258 104.13114685 122.55399078 104.13289917 121.6209259 104.13470459 C118.61184807 104.13912454 115.60282848 104.13618461 112.59375 104.1328125 C110.51249175 104.1334855 108.43123357 104.13445549 106.34997559 104.13571167 C101.98184462 104.13718884 97.61373407 104.13503348 93.24560547 104.13037109 C87.63285447 104.1246738 82.02015128 104.1279527 76.40740204 104.13394356 C72.10788611 104.13754866 67.80838162 104.13641082 63.50886536 104.13381577 C61.43870539 104.13314636 59.3685444 104.1339754 57.29838562 104.13629532 C54.41048414 104.13882102 51.52266122 104.13498242 48.63476562 104.12939453 C47.77031326 104.13141876 46.9058609 104.13344299 46.01521301 104.13552856 C40.11426237 104.11426237 40.11426237 104.11426237 39 103 C38.90570658 100.82194281 38.88257462 98.6407872 38.88647461 96.46069336 C38.88635407 95.76671983 38.88623354 95.0727463 38.88610935 94.35774326 C38.88685831 92.10174464 38.89448571 89.84582768 38.90234375 87.58984375 C38.90381322 86.20088745 38.9048339 84.8119306 38.90539551 83.42297363 C38.91064776 78.26114067 38.92460886 73.09931954 38.9375 67.9375 C38.958125 56.408125 38.97875 44.87875 39 33 C63.09 33 87.18 33 112 33 C112 23.76 112 14.52 112 5 C110.35 5 108.7 5 107 5 C107 4.01 107 3.02 107 2 C71.69 2 36.38 2 0 2 C0 1.34 0 0.68 0 0 Z "
          fill="#F4C3C5" transform="translate(319,304)"/>
    <path d="M0 0 C35.64 0 71.28 0 108 0 C108.495 1.98 108.495 1.98 109 4 C110.32 4 111.64 4 113 4 C113 29.74 113 55.48 113 82 C112.34 82 111.68 82 111 82 C111 82.66 111 83.32 111 84 C88.23 84 65.46 84 42 84 C42 89.94 42 95.88 42 102 C72.03 102 102.06 102 133 102 C133 69 133 36 133 2 C133.33 2 133.66 2 134 2 C134 35.66 134 69.32 134 104 C102.98 104 71.96 104 40 104 C40 96.74 40 89.48 40 82 C63.1 82 86.2 82 110 82 C110 56.59 110 31.18 110 5 C108.35 4.67 106.7 4.34 105 4 C105 3.34 105 2.68 105 2 C70.35 2 35.7 2 0 2 C0 1.34 0 0.68 0 0 Z "
          fill="#EACCCC" transform="translate(532,304)"/>
    <path d="M0 0 C59.73 0 119.46 0 181 0 C181 0.99 181 1.98 181 3 C182.32 3 183.64 3 185 3 C185 12.24 185 21.48 185 31 C160.58 31 136.16 31 111 31 C111 40.57 111 50.14 111 60 C110.01 60.99 109.02 61.98 108 63 C107.01 63 106.02 63 105 63 C105 63.66 105 64.32 105 65 C101.37645041 66.49204983 97.72470596 67.78376948 94 69 C93.01 69.37125 92.02 69.7425 91 70.125 C87.85125882 71.04338284 85.26141197 71.15530533 82 71 C82 71.66 82 72.32 82 73 C80.02 73 78.04 73 76 73 C76 71.68 76 70.36 76 69 C74.02 68.505 74.02 68.505 72 68 C72 55.79 72 43.58 72 31 C49.23 31 26.46 31 3 31 C3 29.68 3 28.36 3 27 C2.01 27 1.02 27 0 27 C0 18.09 0 9.18 0 0 Z M1 2 C0.91286169 3.70772358 0.89299993 5.41898649 0.90234375 7.12890625 C0.90556641 8.16337891 0.90878906 9.19785156 0.91210938 10.26367188 C0.92048828 11.35228516 0.92886719 12.44089844 0.9375 13.5625 C0.94201172 14.65498047 0.94652344 15.74746094 0.95117188 16.87304688 C0.96300174 19.58208495 0.97948457 22.29101599 1 25 C1.99 25 2.98 25 4 25 C4 26.65 4 28.3 4 30 C27.1 30 50.2 30 74 30 C74.33 41.22 74.66 52.44 75 64 C76.65 64 78.3 64 80 64 C80.33 63.67 80.66 63.34 81 63 C84.72344639 62.45949972 88.24055985 62 92 62 C85.565 64.475 85.565 64.475 79 67 C79 67.99 79 68.98 79 70 C84.99008495 69.60609419 89.58889104 68.60149469 95 66 C96.6642135 65.32723284 98.32986582 64.65793165 100 64 C100 63.34 100 62.68 100 62 C100.7425 62.04125 101.485 62.0825 102.25 62.125 C105.33421811 62.17133967 105.33421811 62.17133967 109 60 C109 49.77 109 39.54 109 29 C133.75 29 158.5 29 184 29 C184 20.75 184 12.5 184 4 C182.68 4 181.36 4 180 4 C179.67 3.01 179.34 2.02 179 1 C155.93933894 0.97667353 132.87867982 0.95902206 109.81800938 0.94818783 C99.11133493 0.94302433 88.4046678 0.93598063 77.69799805 0.92456055 C68.36963917 0.91461533 59.04128559 0.90814696 49.71292156 0.90591151 C44.77041051 0.90460412 39.82791461 0.90151652 34.8854084 0.89426994 C30.23898765 0.88751229 25.59258838 0.88538252 20.94616318 0.88689232 C19.23565873 0.88661588 17.52515361 0.88460925 15.8146534 0.88079453 C13.48969501 0.87586125 11.16481908 0.87700034 8.83985901 0.87974548 C6.8833534 0.87836279 6.8833534 0.87836279 4.88732243 0.87695217 C2.10509456 0.66945265 2.10509456 0.66945265 1 2 Z "
          fill="#B9434D" transform="translate(99,403)"/>
    <path d="M0 0 C1.65 0 3.3 0 5 0 C5 25.41 5 50.82 5 77 C-18.1 77 -41.2 77 -65 77 C-65 83.93 -65 90.86 -65 98 C-66.98 98.495 -66.98 98.495 -69 99 C-70 98 -70 98 -70.11352539 95.59155273 C-70.10828857 94.54942627 -70.10305176 93.5072998 -70.09765625 92.43359375 C-70.09443359 91.30888672 -70.09121094 90.18417969 -70.08789062 89.02539062 C-70.07951172 87.84138672 -70.07113281 86.65738281 -70.0625 85.4375 C-70.05798828 84.24962891 -70.05347656 83.06175781 -70.04882812 81.83789062 C-70.03699675 78.89187774 -70.02051287 75.94596319 -70 73 C-69.15031143 72.98969254 -68.30062286 72.97938507 -67.42518616 72.96876526 C-59.43456059 72.87096311 -51.44401207 72.76847382 -43.45351505 72.66066074 C-39.34509583 72.60539417 -35.23666954 72.55196835 -31.12817383 72.50268555 C-27.16646874 72.45509687 -23.20485282 72.40275633 -19.24325371 72.34705925 C-17.72854253 72.32661069 -16.21380688 72.30790183 -14.69905281 72.29092598 C-12.58451574 72.26693701 -10.47014865 72.2368755 -8.35571289 72.20532227 C-7.14992081 72.18977798 -5.94412872 72.1742337 -4.70179749 72.15821838 C-2.08365624 72.30517617 -2.08365624 72.30517617 -1 71 C-0.87593185 68.79205589 -0.82197722 66.58015514 -0.79467773 64.36889648 C-0.78477814 63.67624695 -0.77487854 62.98359741 -0.76467896 62.2699585 C-0.7329797 59.97037221 -0.70827349 57.67076523 -0.68359375 55.37109375 C-0.66303148 53.78067982 -0.64203521 52.19027145 -0.62062073 50.59986877 C-0.56532491 46.40610237 -0.5159489 42.21228605 -0.46777344 38.01843262 C-0.41761309 33.74206072 -0.36189856 29.46576166 -0.30664062 25.18945312 C-0.19896726 16.79303027 -0.09754284 8.39654662 0 0 Z "
          fill="#6A0B12" transform="translate(637,309)"/>
    <path d="M0 0 C1.32 0 2.64 0 4 0 C4 51.15 4 102.3 4 155 C-4 159 -4 159 -7 159 C-7 159.66 -7 160.32 -7 161 C-9.64 161 -12.28 161 -15 161 C-15.33 161.99 -15.66 162.98 -16 164 C-17.56116819 164.33951619 -19.12401338 164.67132544 -20.6875 165 C-21.55761719 165.185625 -22.42773438 165.37125 -23.32421875 165.5625 C-25.93712964 165.98972047 -28.35813038 166.07616201 -31 166 C-29.125 162.125 -29.125 162.125 -28 161 C-26.33382885 160.95936168 -24.66611905 160.957279 -23 161 C-23 160.34 -23 159.68 -23 159 C-22.28972656 158.79503906 -21.57945312 158.59007812 -20.84765625 158.37890625 C-19.92855469 158.10949219 -19.00945313 157.84007812 -18.0625 157.5625 C-17.14597656 157.29566406 -16.22945312 157.02882813 -15.28515625 156.75390625 C-13.0597507 156.20973949 -13.0597507 156.20973949 -12 155 C-8.37 154.67 -4.74 154.34 -1 154 C-0.505 77.77 -0.505 77.77 0 0 Z "
          fill="#2E1518" transform="translate(702,309)"/>
    <path d="M0 0 C1.65 0 3.3 0 5 0 C5 8.25 5 16.5 5 25 C-15.90543017 25.0462859 -36.810848 25.0819831 -57.71631908 25.10362434 C-67.42295767 25.11393956 -77.12956385 25.12800459 -86.83618164 25.15087891 C-95.29587189 25.17080526 -103.75553868 25.18371466 -112.21525174 25.18817699 C-116.69513276 25.19078564 -121.17494663 25.19692225 -125.65480614 25.21146011 C-129.87117218 25.22503208 -134.08744338 25.22922341 -138.30382919 25.22621536 C-139.8514018 25.2267657 -141.39897757 25.23074545 -142.9465313 25.23841095 C-145.0599856 25.24836626 -147.17308216 25.24596688 -149.2865448 25.24050903 C-150.4692052 25.24235262 -151.6518656 25.24419621 -152.87036419 25.24609566 C-156.04362643 24.99656948 -158.19675171 24.49029924 -161 23 C-161.66 22.01 -162.32 21.02 -163 20 C-82.315 20.495 -82.315 20.495 0 21 C0 14.07 0 7.14 0 0 Z "
          fill="#462427" transform="translate(274,371)"/>
    <path d="M0 0 C16.41113459 0.10710323 32.82221921 0.21983985 49.23326778 0.33933926 C56.85268028 0.39468881 64.47209746 0.44817359 72.09155273 0.49731445 C78.73031764 0.54013514 85.36904783 0.58640769 92.00775915 0.63687855 C95.52502295 0.66349661 99.04227979 0.68835002 102.55958366 0.70907402 C106.47979195 0.73223647 110.39991832 0.76310338 114.32006836 0.79467773 C116.08196503 0.80331093 116.08196503 0.80331093 117.87945557 0.81211853 C119.47179268 0.82680176 119.47179268 0.82680176 121.09629822 0.84178162 C122.02454375 0.84823417 122.95278929 0.85468672 123.90916348 0.8613348 C126 1 126 1 127 2 C127.04063832 3.66617115 127.042721 5.33388095 127 7 C111.16228305 7.07006802 95.3246079 7.1229773 79.48677444 7.15543652 C72.13305735 7.17090821 64.77943654 7.19200341 57.42578125 7.22631836 C51.01664502 7.25621158 44.60757852 7.27557281 38.19837451 7.28226548 C34.80443615 7.28617791 31.41069727 7.29537866 28.01682281 7.31719017 C24.22886706 7.33888796 20.44132796 7.34197006 16.65332031 7.34057617 C15.52691132 7.351362 14.40050232 7.36214783 13.23995972 7.3732605 C11.69192154 7.36707451 11.69192154 7.36707451 10.11260986 7.36076355 C9.21662708 7.36352893 8.3206443 7.36629431 7.39751053 7.36914349 C4.44922805 6.91519792 3.11119837 6.09241204 1 4 C0.25 1.8125 0.25 1.8125 0 0 Z "
          fill="#A20B13" transform="translate(326,433)"/>
    <path d="M0 0 C1.32 0 2.64 0 4 0 C4 9.24 4 18.48 4 28 C-20.09 28 -44.18 28 -69 28 C-69 51.1 -69 74.2 -69 98 C-70.32 98 -71.64 98 -73 98 C-73 73.58 -73 49.16 -73 24 C-49.24 24 -25.48 24 -1 24 C-0.67 16.08 -0.34 8.16 0 0 Z "
          fill="#3E2526" transform="translate(427,309)"/>
    <path d="M0 0 C34 0 34 0 40 2 C40 19.49 40 36.98 40 55 C45.94 55 51.88 55 58 55 C58 55.99 58 56.98 58 58 C59.32 58 60.64 58 62 58 C62 67.57 62 77.14 62 87 C54.74 87 47.48 87 40 87 C40 86.34 40 85.68 40 85 C46.93 85 53.86 85 61 85 C61 76.42 61 67.84 61 59 C59.68 59 58.36 59 57 59 C57 58.01 57 57.02 57 56 C56.01604248 56.01571045 56.01604248 56.01571045 55.01220703 56.03173828 C52.04984342 56.07322503 49.08754084 56.09930262 46.125 56.125 C45.09246094 56.14175781 44.05992187 56.15851563 42.99609375 56.17578125 C41.51689453 56.18544922 41.51689453 56.18544922 40.0078125 56.1953125 C38.64100342 56.21102295 38.64100342 56.21102295 37.24658203 56.22705078 C35 56 35 56 33 54 C32.75949097 51.74740601 32.75949097 51.74740601 32.77294922 48.90771484 C32.77310028 47.84676605 32.77325134 46.78581726 32.77340698 45.69271851 C32.78889084 43.96923691 32.78889084 43.96923691 32.8046875 42.2109375 C32.8075174 41.03737701 32.81034729 39.86381653 32.81326294 38.6546936 C32.82448645 34.89469338 32.84959508 31.13492861 32.875 27.375 C32.88502699 24.8307326 32.89415332 22.28646148 32.90234375 19.7421875 C32.92273396 13.49462728 32.96187918 7.24757818 33 1 C22.44 1 11.88 1 1 1 C1 34 1 67 1 101 C0.67 101 0.34 101 0 101 C0 67.67 0 34.34 0 0 Z "
          fill="#AD3337" transform="translate(453,306)"/>
    <path d="M0 0 C10.89 0 21.78 0 33 0 C34.37201251 2.74402502 34.10521846 4.90072641 34.08229065 7.97305298 C34.07525116 9.24633957 34.06821167 10.51962616 34.06095886 11.83149719 C34.0479755 13.25045862 34.03489545 14.66941917 34.02172852 16.08837891 C34.01158881 17.57633682 34.00189481 19.06429783 33.99261475 20.55226135 C33.96610283 24.59957699 33.93332968 28.64682093 33.89946485 32.69408083 C33.86515237 36.92081481 33.83655308 41.14758727 33.80735779 45.37435913 C33.75117473 53.38187631 33.68982484 61.38934531 33.62663645 69.39680994 C33.55496076 78.51152762 33.48901795 87.62628393 33.42356598 96.7410481 C33.2887739 115.49408235 33.14675218 134.24705572 33 153 C31.02 153.99 31.02 153.99 29 155 C29 154.34 29 153.68 29 153 C29.66 153 30.32 153 31 153 C31 102.84 31 52.68 31 1 C21.43 1 11.86 1 2 1 C2 34 2 67 2 101 C1.01 101.495 1.01 101.495 0 102 C0 68.34 0 34.68 0 0 Z "
          fill="#C80C13" transform="translate(668,307)"/>
    <path d="M0 0 C1.32 0 2.64 0 4 0 C4 7.92 4 15.84 4 24 C2.33012024 24.01030746 0.66024048 24.02061493 -1.0602417 24.03123474 C-16.77587797 24.1288728 -32.49147292 24.23153954 -48.20704269 24.33933926 C-56.28710234 24.39463431 -64.3671664 24.4481102 -72.44726562 24.49731445 C-79.48928094 24.54020183 -86.53126423 24.58649132 -93.57323003 24.63687855 C-97.30241842 24.66344279 -101.03160062 24.68829493 -104.76082611 24.70907402 C-108.92230449 24.73232531 -113.08369312 24.76317146 -117.24511719 24.79467773 C-118.48373505 24.8004332 -119.72235291 24.80618866 -120.99850464 24.81211853 C-122.69799759 24.82680176 -122.69799759 24.82680176 -124.43182373 24.84178162 C-125.90853609 24.85146044 -125.90853609 24.85146044 -127.41508102 24.8613348 C-129.758722 24.9870569 -131.75723713 25.33461812 -134 26 C-134 24.35 -134 22.7 -134 21 C-89.78 21 -45.56 21 0 21 C0 14.07 0 7.14 0 0 Z "
          fill="#440100" transform="translate(274,341)"/>
    <path d="M0 0 C0.9061225 0.00092179 1.81224501 0.00184359 2.74582577 0.00279331 C3.78214138 0.00141865 4.81845699 0.00004398 5.88617611 -0.00137234 C7.60599445 0.00402058 7.60599445 0.00402058 9.3605566 0.00952244 C10.56039181 0.00937641 11.76022701 0.00923038 12.99642086 0.00907993 C16.29586749 0.00965889 19.59525222 0.01468805 22.89468789 0.02165389 C26.33935856 0.0278881 29.78402997 0.02849128 33.22870541 0.0296793 C39.75584288 0.03279242 46.28296369 0.04100554 52.81009382 0.05102879 C60.23923575 0.06219053 67.66837845 0.06770053 75.09752667 0.07272422 C90.38369931 0.08318817 105.6698553 0.10078723 120.95601559 0.12304783 C120.95601559 1.44304783 120.95601559 2.76304783 120.95601559 4.12304783 C105.37907182 4.19311762 89.80215662 4.24602601 74.22509289 4.27848434 C66.99244323 4.29395566 59.75989147 4.31505013 52.52730465 4.34936619 C46.22364383 4.37926058 39.92005392 4.39862091 33.61632419 4.40531331 C30.27823232 4.4092256 26.94050389 4.41999549 23.60244656 4.440238 C19.87675482 4.46193758 16.15148666 4.46501781 12.42574215 4.463624 C10.76418087 4.47980274 10.76418087 4.47980274 9.0690527 4.49630833 C7.54625698 4.49012234 7.54625698 4.49012234 5.99269772 4.48381138 C4.67084658 4.48795945 4.67084658 4.48795945 3.32229137 4.49219131 C0.48459554 4.04950541 -0.90855625 2.99521695 -3.04398441 1.12304783 C-2.04398441 0.12304783 -2.04398441 0.12304783 0 0 Z "
          fill="#5E2727" transform="translate(545.043984413147,435.8769521713257)"/>
    <path d="M0 0 C0.66 0 1.32 0 2 0 C2 7.26 2 14.52 2 22 C-42.22 22 -86.44 22 -132 22 C-132 23.65 -132 25.3 -132 27 C-130.68 26.67 -129.36 26.34 -128 26 C-128 27.32 -128 28.64 -128 30 C-130.31 30 -132.62 30 -135 30 C-135.33 27.36 -135.66 24.72 -136 22 C-132.79687494 19.14349855 -130.76493713 18.62709619 -126.50775146 18.63923645 C-125.39158447 18.63511246 -124.27541748 18.63098846 -123.12542725 18.6267395 C-121.90551086 18.63752533 -120.68559448 18.64831116 -119.42871094 18.65942383 C-118.14065552 18.65898575 -116.8526001 18.65854767 -115.5255127 18.65809631 C-111.99681077 18.65723568 -108.46841487 18.67487223 -104.93978405 18.69581819 C-101.25090779 18.71457371 -97.56202449 18.71633454 -93.87310791 18.71989441 C-86.88914472 18.7292182 -79.90532244 18.75383643 -72.92142129 18.78394288 C-64.96986731 18.81747655 -57.01830659 18.83397029 -49.0666995 18.84902918 C-32.7110482 18.88038576 -16.35554764 18.93375706 0 19 C0 12.73 0 6.46 0 0 Z "
          fill="#AA0F17" transform="translate(272,340)"/>
    <path d="M0 0 C40.59 0.33 81.18 0.66 123 1 C123 10.9 123 20.8 123 31 C124.32 31 125.64 31 127 31 C127 32.32 127 33.64 127 35 C128.65 35 130.3 35 132 35 C131.67 35.66 131.34 36.32 131 37 C129.02 37 127.04 37 125 37 C125 35.68 125 34.36 125 33 C124.360625 32.855625 123.72125 32.71125 123.0625 32.5625 C121 32 121 32 120 31 C119.91241997 29.00035018 119.89303424 26.9976389 119.90234375 24.99609375 C119.90717773 23.17368164 119.90717773 23.17368164 119.91210938 21.31445312 C119.92467773 19.39536133 119.92467773 19.39536133 119.9375 17.4375 C119.94201172 16.15423828 119.94652344 14.87097656 119.95117188 13.54882812 C119.96300455 10.36583978 119.97948932 7.18294238 120 4 C118.70311249 4.00444122 117.40622498 4.00888245 116.07003784 4.01345825 C103.8011444 4.05414005 91.5322648 4.08404928 79.26331902 4.10362434 C72.95693 4.11402662 66.65059577 4.12812041 60.34423828 4.15087891 C54.24934481 4.17273465 48.15450379 4.18459532 42.05957413 4.18975449 C39.74337057 4.1934275 37.42716962 4.20059947 35.11098862 4.21146011 C23.2379231 4.26487949 11.69797574 4.2905729 0 2 C0 1.34 0 0.68 0 0 Z "
          fill="#F2F0F1" transform="translate(330,439)"/>
    <path d="M0 0 C1.98 0 3.96 0 6 0 C6.02886338 4.47915328 6.04675187 8.95828291 6.0625 13.4375 C6.07087891 14.71689453 6.07925781 15.99628906 6.08789062 17.31445312 C6.09111328 18.52939453 6.09433594 19.74433594 6.09765625 20.99609375 C6.10289307 22.12200928 6.10812988 23.2479248 6.11352539 24.40795898 C6 27 6 27 5 28 C3.26640402 28.09627113 1.52885354 28.12187568 -0.20741272 28.12025452 C-1.33628403 28.12162918 -2.46515533 28.12300385 -3.62823486 28.12442017 C-4.87763855 28.12082489 -6.12704224 28.11722961 -7.41430664 28.11352539 C-8.72143112 28.11367142 -10.0285556 28.11381744 -11.37528992 28.1139679 C-14.97017099 28.11425586 -18.56501897 28.10835928 -22.15989232 28.10139394 C-25.91286252 28.09516026 -29.6658334 28.09455659 -33.41880798 28.09336853 C-40.53030826 28.09025526 -47.64179325 28.08204192 -54.75328678 28.07201904 C-62.84747066 28.06085778 -70.94165526 28.05534742 -79.03584492 28.05032361 C-95.69057225 28.03985931 -112.34528418 28.02225994 -129 28 C-129 28.66 -129 29.32 -129 30 C-86.43 30 -43.86 30 0 30 C-0.33 30.66 -0.66 31.32 -1 32 C-43.57 31.67 -86.14 31.34 -130 31 C-130 29.35 -130 27.7 -130 26 C-85.78 26 -41.56 26 4 26 C4 17.75 4 9.5 4 1 C2.02 0.505 2.02 0.505 0 0 Z "
          fill="#946565" transform="translate(274,308)"/>
    <path d="M0 0 C0.33 0 0.66 0 1 0 C1 6.93 1 13.86 1 21 C4.21834595 21.03758423 4.21834595 21.03758423 7.50170898 21.07592773 C14.57451079 21.15924032 21.64723744 21.24794667 28.71993923 21.33933926 C33.0099621 21.39460736 37.29999174 21.44803343 41.59008789 21.49731445 C45.72685436 21.54490086 49.86353536 21.59724132 54.00020027 21.65294075 C55.58189847 21.67339034 57.16362012 21.69209903 58.74535942 21.70907402 C60.95329178 21.7330607 63.1610612 21.76312256 65.36889648 21.79467773 C67.25752663 21.81799416 67.25752663 21.81799416 69.18431091 21.84178162 C72 22 72 22 73 23 C73 24.65 73 26.3 73 28 C49.9 28 26.8 28 3 28 C3 26.35 3 24.7 3 23 C2.01 23 1.02 23 0 23 C0 15.41 0 7.82 0 0 Z "
          fill="#B90F17" transform="translate(100,405)"/>
    <path d="M0 0 C0.66 0 1.32 0 2 0 C2 8.25 2 16.5 2 25 C0.02 25.495 0.02 25.495 -2 26 C-2 26.66 -2 27.32 -2 28 C-1.01 28.66 -0.02 29.32 1 30 C-0.65 30 -2.3 30 -4 30 C-4.33 29.34 -4.66 28.68 -5 28 C-47.57 27.67 -90.14 27.34 -134 27 C-134 26.01 -134 25.02 -134 24 C-89.78 24 -45.56 24 0 24 C0 16.08 0 8.16 0 0 Z "
          fill="#BF9B9D" transform="translate(278,341)"/>
    <path d="M0 0 C2 2 2 2 2.24291992 4.21484375 C2.23881104 5.11332031 2.23470215 6.01179688 2.23046875 6.9375 C2.22853516 7.91460937 2.22660156 8.89171875 2.22460938 9.8984375 C2.21236328 10.92195313 2.20011719 11.94546875 2.1875 13 C2.1865332 14.53527344 2.1865332 14.53527344 2.18554688 16.1015625 C2.14032251 23.71935497 2.14032251 23.71935497 1 26 C-22.76 26 -46.52 26 -71 26 C-71 50.42 -71 74.84 -71 100 C-71.99 100 -72.98 100 -74 100 C-75.45503793 97.08992414 -75.1353584 94.5375034 -75.14526367 91.28710938 C-75.14862228 90.5975264 -75.1519809 89.90794342 -75.15544128 89.19746399 C-75.16495796 86.91287446 -75.16689462 84.62835813 -75.16796875 82.34375 C-75.17118037 80.75956186 -75.17454437 79.17537403 -75.17805481 77.59118652 C-75.18404754 74.26895459 -75.18589452 70.94674868 -75.18530273 67.62451172 C-75.185201 63.36040259 -75.1988644 59.09645955 -75.21607494 54.83238983 C-75.22717341 51.56051868 -75.22922262 48.28868798 -75.22869301 45.01679993 C-75.22987595 43.44427415 -75.23431523 41.87174743 -75.24202538 40.29924011 C-75.25178389 38.10367054 -75.2489641 35.90846562 -75.24291992 33.71289062 C-75.24434494 32.46205688 -75.24576996 31.21122314 -75.24723816 29.92248535 C-75 27 -75 27 -73 25 C-69.98812866 24.75949097 -69.98812866 24.75949097 -66.07177734 24.77294922 C-65.00332329 24.77251114 -65.00332329 24.77251114 -63.9132843 24.77206421 C-61.55404566 24.77345984 -59.19512111 24.78903173 -56.8359375 24.8046875 C-55.20211968 24.80841681 -53.56829962 24.81126417 -51.93447876 24.81326294 C-47.63047124 24.8209059 -43.32659832 24.84056001 -39.02264404 24.8626709 C-34.63230205 24.8831151 -30.24193835 24.8922616 -25.8515625 24.90234375 C-17.2343063 24.92380535 -8.61718539 24.95899282 0 25 C0 16.75 0 8.5 0 0 Z "
          fill="#A40C15" transform="translate(425,307)"/>
    <path d="M0 0 C35.97 0 71.94 0 109 0 C109 1.32 109 2.64 109 4 C110.32 4 111.64 4 113 4 C113 13.9 113 23.8 113 34 C88.91 34 64.82 34 40 34 C40 56.77 40 79.54 40 103 C39.67 103 39.34 103 39 103 C39 79.9 39 56.8 39 33 C63.09 33 87.18 33 112 33 C112 23.76 112 14.52 112 5 C110.35 5 108.7 5 107 5 C107 4.01 107 3.02 107 2 C71.69 2 36.38 2 0 2 C0 1.34 0 0.68 0 0 Z "
          fill="#CCAEB1" transform="translate(319,304)"/>
    <path d="M0 0 C1.32 0 2.64 0 4 0 C4 8.25 4 16.5 4 25 C-40.22 25 -84.44 25 -130 25 C-130 26.32 -130 27.64 -130 29 C-131.32 29 -132.64 29 -134 29 C-134 27.02 -134 25.04 -134 23 C-90.11 22.67 -46.22 22.34 -1 22 C-0.67 14.74 -0.34 7.48 0 0 Z "
          fill="#3B1415" transform="translate(274,309)"/>
    <path d="M0 0 C40.26 0 80.52 0 122 0 C122 0.99 122 1.98 122 3 C106.38848712 3.02333844 90.77697894 3.04098383 75.16545296 3.05181217 C67.91709943 3.05697311 60.66875673 3.06401199 53.42041016 3.07543945 C47.10431724 3.08539243 40.78823215 3.0918549 34.47213161 3.09408849 C31.12640149 3.09539455 27.7806938 3.09847382 24.43497086 3.10573006 C20.70419207 3.11294511 16.97346038 3.11399074 13.24267578 3.11352539 C12.12777771 3.11712067 11.01287964 3.12071594 9.86419678 3.12442017 C8.34552505 3.12235817 8.34552505 3.12235817 6.7961731 3.12025452 C5.47155658 3.12163721 5.47155658 3.12163721 4.12018013 3.12304783 C2 3 2 3 0 2 C0 1.34 0 0.68 0 0 Z "
          fill="#543635" transform="translate(329,437)"/>
    <path d="M0 0 C1.98 0 3.96 0 6 0 C6 51.81 6 103.62 6 157 C4.35 157.33 2.7 157.66 1 158 C1.495 157.01 1.495 157.01 2 156 C2.66 156 3.32 156 4 156 C4 104.85 4 53.7 4 1 C2.68 0.67 1.36 0.34 0 0 Z "
          fill="#9F9C99" transform="translate(702,308)"/>
    <path d="M0 0 C0.99 0 1.98 0 3 0 C3 8.25 3 16.5 3 25 C-21.75 25 -46.5 25 -72 25 C-72 35.23 -72 45.46 -72 56 C-75.76687864 57.88343932 -77.02958963 58.22057835 -81 58 C-81 58.66 -81 59.32 -81 60 C-81.72316406 60.28617187 -82.44632813 60.57234375 -83.19140625 60.8671875 C-84.9581589 61.57978592 -86.71742839 62.31152992 -88.46484375 63.0703125 C-93.12659806 65.05873851 -96.82544449 66.54469005 -102 66 C-102 65.01 -102 64.02 -102 63 C-101.17757812 62.68546875 -100.35515625 62.3709375 -99.5078125 62.046875 C-93.35414208 59.68773114 -87.21587038 57.30467516 -81.12109375 54.796875 C-79 54 -79 54 -75 53 C-74.67 43.43 -74.34 33.86 -74 24 C-49.91 23.67 -25.82 23.34 -1 23 C-0.67 15.41 -0.34 7.82 0 0 Z "
          fill="#450C0C" transform="translate(280,407)"/>
    <path d="M0 0 C0.66 0 1.32 0 2 0 C2 25.41 2 50.82 2 77 C-21.1 77 -44.2 77 -68 77 C-68 83.93 -68 90.86 -68 98 C-68.33 98 -68.66 98 -69 98 C-69.02887512 94.35418313 -69.04675585 90.70839537 -69.0625 87.0625 C-69.07087891 86.02158203 -69.07925781 84.98066406 -69.08789062 83.90820312 C-69.09272461 82.42416992 -69.09272461 82.42416992 -69.09765625 80.91015625 C-69.10289307 79.99371338 -69.10812988 79.07727051 -69.11352539 78.13305664 C-69 76 -69 76 -68 75 C-65.88318683 74.9057826 -63.76319242 74.88257239 -61.64428711 74.88647461 C-60.97013795 74.88635407 -60.29598879 74.88623354 -59.60141087 74.88610935 C-57.41002209 74.88685826 -55.2187174 74.89448546 -53.02734375 74.90234375 C-51.678101 74.90381324 -50.32885769 74.90483391 -48.97961426 74.90539551 C-43.9655675 74.9106476 -38.95153293 74.9246087 -33.9375 74.9375 C-17.1384375 74.9684375 -17.1384375 74.9684375 0 75 C0 50.25 0 25.5 0 0 Z "
          fill="#494241" transform="translate(640,309)"/>
    <path d="M0 0 C35.64 0 71.28 0 108 0 C108.495 1.98 108.495 1.98 109 4 C109.66 4 110.32 4 111 4 C111 29.41 111 54.82 111 81 C110.67 81 110.34 81 110 81 C110 55.92 110 30.84 110 5 C108.35 4.67 106.7 4.34 105 4 C105 3.34 105 2.68 105 2 C70.35 2 35.7 2 0 2 C0 1.34 0 0.68 0 0 Z "
          fill="#CDA5A8" transform="translate(532,304)"/>
    <path d="M0 0 C0.33 0.66 0.66 1.32 1 2 C-0.32 2.33 -1.64 2.66 -3 3 C-2.01 3.495 -2.01 3.495 -1 4 C-1 4.66 -1 5.32 -1 6 C-2.32 6 -3.64 6 -5 6 C-5 5.01 -5 4.02 -5 3 C-47.57 3 -90.14 3 -134 3 C-134 2.34 -134 1.68 -134 1 C-67.67 0.505 -67.67 0.505 0 0 Z "
          fill="#E0BCBF" transform="translate(279,335)"/>
    <path d="M0 0 C0.33 0 0.66 0 1 0 C1 16.5 1 33 1 50 C6.94 50 12.88 50 19 50 C19.33 51.32 19.66 52.64 20 54 C21.32 54 22.64 54 24 54 C24 64.23 24 74.46 24 85 C16.41 85 8.82 85 1 85 C1.00523682 87.07974121 1.01047363 89.15948242 1.01586914 91.30224609 C1.03241755 98.16343362 1.04347626 105.02462202 1.05181217 111.8858242 C1.05703719 116.04694039 1.06412795 120.20803618 1.07543945 124.36914062 C1.08628184 128.38265815 1.09227972 132.39615601 1.09487724 136.40968704 C1.09672905 137.94313491 1.100345 139.47658168 1.10573006 141.01002121 C1.1129584 143.15302632 1.11399018 145.29594956 1.11352539 147.43896484 C1.115746 148.66030121 1.11796661 149.88163757 1.12025452 151.13998413 C1 154 1 154 0 156 C-2.06640625 156.4140625 -2.06640625 156.4140625 -4.5625 156.625 C-5.80193359 156.73714844 -5.80193359 156.73714844 -7.06640625 156.8515625 C-7.70449219 156.90054688 -8.34257812 156.94953125 -9 157 C-8.505 156.01 -8.505 156.01 -8 155 C-4.535 154.01 -4.535 154.01 -1 153 C-0.67 130.23 -0.34 107.46 0 84 C7.26 84 14.52 84 22 84 C22 74.43 22 64.86 22 55 C20.68 55 19.36 55 18 55 C18 54.01 18 53.02 18 52 C12.06 52 6.12 52 0 52 C0 34.84 0 17.68 0 0 Z "
          fill="#C2BFBE" transform="translate(493,309)"/>
    <path d="M0 0 C0.66 0 1.32 0 2 0 C2.00634791 0.91799299 2.00634791 0.91799299 2.01282406 1.85453129 C2.11623233 16.76155832 2.22488508 31.66854025 2.33933926 46.57548618 C2.39456312 53.78443892 2.44802697 60.99339661 2.49731445 68.20239258 C2.54028941 74.48743331 2.58660031 80.77243921 2.63687855 87.05742592 C2.66337266 90.38373335 2.68772471 93.71003386 2.70907402 97.03637886 C2.73321918 100.75420038 2.76325995 104.47193108 2.79467773 108.18969727 C2.8004332 109.28661896 2.80618866 110.38354065 2.81211853 111.51370239 C2.86266571 116.77723921 3.08510374 121.81325718 4 127 C5.32 127.33 6.64 127.66 8 128 C6.68 128.33 5.36 128.66 4 129 C3.505 126.525 3.505 126.525 3 124 C2.01 123.67 1.02 123.34 0 123 C0 82.41 0 41.82 0 0 Z "
          fill="#F1B8B9" transform="translate(317,306)"/>
    <path d="M0 0 C1.32 0 2.64 0 4 0 C4 17.49 4 34.98 4 53 C2.68 53 1.36 53 0 53 C-1.22721424 50.54557152 -1.12691608 48.94282486 -1.12939453 46.19897461 C-1.13254669 45.20131577 -1.13569885 44.20365692 -1.13894653 43.17576599 C-1.1369223 42.09553665 -1.13489807 41.01530731 -1.1328125 39.90234375 C-1.13424759 38.24544273 -1.13424759 38.24544273 -1.13571167 36.55506897 C-1.13639301 34.21729475 -1.13454196 31.87951864 -1.13037109 29.54174805 C-1.12501716 25.94901312 -1.1303203 22.35640292 -1.13671875 18.76367188 C-1.13605806 16.49739556 -1.13477709 14.23111931 -1.1328125 11.96484375 C-1.13483673 10.88259018 -1.13686096 9.80033661 -1.13894653 8.68528748 C-1.13579437 7.69078079 -1.13264221 6.69627411 -1.12939453 5.67163086 C-1.12859894 4.79163925 -1.12780334 3.91164764 -1.12698364 3.00498962 C-1 1 -1 1 0 0 Z "
          fill="#3B1718" transform="translate(489,308)"/>
    <path d="M0 0 C0.33 0 0.66 0 1 0 C1 8.91 1 17.82 1 27 C-23.42 27 -47.84 27 -73 27 C-73 36.57 -73 46.14 -73 56 C-74.98 56.66 -76.96 57.32 -79 58 C-78.67 57.34 -78.34 56.68 -78 56 C-77.01 56 -76.02 56 -75 56 C-75 45.77 -75 35.54 -75 25 C-50.25 25 -25.5 25 0 25 C0 16.75 0 8.5 0 0 Z "
          fill="#544A4A" transform="translate(283,407)"/>
    <path d="M0 0 C0.71877697 0.32439528 1.43755394 0.64879057 2.17811203 0.98301601 C5.05708061 2.02057136 7.10869983 2.25710068 10.15020752 2.27174377 C11.16533417 2.2814621 12.18046082 2.29118042 13.22634888 2.30119324 C14.32889008 2.30178238 15.43143127 2.30237152 16.56738281 2.30297852 C17.73693512 2.31141785 18.90648743 2.31985718 20.11148071 2.32855225 C23.97536626 2.35433385 27.83917549 2.36646923 31.703125 2.37890625 C34.38402479 2.39507672 37.06490399 2.4121126 39.74578857 2.43040466 C46.08032086 2.47199839 52.41486094 2.5044437 58.74946475 2.53287882 C70.10814017 2.58394126 81.46674872 2.64590855 92.82530856 2.71821922 C97.45654222 2.7472091 102.08776837 2.76730825 106.71905518 2.78553772 C109.12943649 2.79893721 111.53981663 2.81255138 113.95019531 2.82641602 C115.06083344 2.82902939 116.17147156 2.83164276 117.31576538 2.83433533 C118.31961273 2.84123383 119.32346008 2.84813232 120.35772705 2.85523987 C121.67398512 2.86102224 121.67398512 2.86102224 123.01683426 2.86692142 C125 3 125 3 126 4 C126.08790975 6.29151417 126.10694038 8.58572524 126.09765625 10.87890625 C126.0962413 11.5655687 126.09482635 12.25223114 126.09336853 12.95970154 C126.08775479 15.16067801 126.07520007 17.36155409 126.0625 19.5625 C126.05748676 21.05143083 126.05292355 22.54036324 126.04882812 24.02929688 C126.03778093 27.68623075 126.02050713 31.34310558 126 35 C126.99 35 127.98 35 129 35 C129 36.32 129 37.64 129 39 C130.32 39 131.64 39 133 39 C133 39.66 133 40.32 133 41 C131.35 41 129.7 41 128 41 C128 39.68 128 38.36 128 37 C127.01 37 126.02 37 125 37 C125 27.1 125 17.2 125 7 C124.34 7 123.68 7 123 7 C123 6.34 123 5.68 123 5 C122.17961243 5.00333092 122.17961243 5.00333092 121.34265137 5.00672913 C93.26169935 5.11475776 65.18411907 5.06177488 37.10546875 4.68161011 C34.24401079 4.64294107 31.38255416 4.60874874 28.52099609 4.57839966 C24.4994571 4.53523175 20.47833068 4.47565237 16.45703125 4.4140625 C15.25218582 4.40250626 14.04734039 4.39095001 12.8059845 4.37904358 C11.70058823 4.35917892 10.59519196 4.33931427 9.45629883 4.31884766 C8.01302971 4.29886215 8.01302971 4.29886215 6.54060364 4.2784729 C3.91907716 3.99113013 2.25478461 3.33205316 0 2 C0 1.34 0 0.68 0 0 Z "
          fill="#ACA9A9" transform="translate(541,437)"/>
    <path d="M0 0 C1.32 0 2.64 0 4 0 C4 7.92 4 15.84 4 24 C-40.88 24.33 -85.76 24.66 -132 25 C-132 24.34 -132 23.68 -132 23 C-88.44 23 -44.88 23 0 23 C0 15.41 0 7.82 0 0 Z "
          fill="#260A08" transform="translate(274,341)"/>
    <path d="M0 0 C1.40668945 0.01450195 1.40668945 0.01450195 2.84179688 0.02929688 C3.81826172 0.05443359 4.79472656 0.07957031 5.80078125 0.10546875 C6.78884766 0.11900391 7.77691406 0.13253906 8.79492188 0.14648438 C11.23492356 0.18184672 13.67382844 0.23119842 16.11328125 0.29296875 C16.11328125 0.62296875 16.11328125 0.95296875 16.11328125 1.29296875 C15.51265869 1.3180249 14.91203613 1.34308105 14.29321289 1.36889648 C11.58716688 1.48452155 8.88149842 1.60739811 6.17578125 1.73046875 C4.75749023 1.78944336 4.75749023 1.78944336 3.31054688 1.84960938 C2.41142578 1.89150391 1.51230469 1.93339844 0.5859375 1.9765625 C-0.66304321 2.03154907 -0.66304321 2.03154907 -1.93725586 2.08764648 C-3.89010733 2.08663978 -3.89010733 2.08663978 -4.88671875 3.29296875 C-5.00000649 5.332148 -5.04357397 7.37522527 -5.06030273 9.41748047 C-5.07379257 10.72909149 -5.08728241 12.04070251 -5.10118103 13.39205933 C-5.10624098 14.09755795 -5.11130093 14.80305656 -5.11651421 15.52993393 C-5.13288231 17.73204798 -5.15611857 19.93398835 -5.18141174 22.13601685 C-5.25229988 28.39837024 -5.3123066 34.66079535 -5.36352539 40.92333984 C-5.39530566 44.7501001 -5.43658123 48.57666273 -5.48372078 52.40326309 C-5.49974992 53.86327688 -5.51206729 55.32333625 -5.52062798 56.78341293 C-5.53277226 58.8255702 -5.55795446 60.8676374 -5.58374023 62.90966797 C-5.5940477 64.07247284 -5.60435516 65.23527771 -5.61497498 66.43331909 C-5.88671875 69.29296875 -5.88671875 69.29296875 -7.88671875 72.29296875 C-9.91015625 73.4609375 -9.91015625 73.4609375 -12.26171875 74.48046875 C-13.03257812 74.82464844 -13.8034375 75.16882813 -14.59765625 75.5234375 C-16.88671875 76.29296875 -16.88671875 76.29296875 -20.88671875 76.29296875 C-20.88671875 76.95296875 -20.88671875 77.61296875 -20.88671875 78.29296875 C-22.79868914 78.99342331 -24.7165231 79.67788775 -26.63671875 80.35546875 C-27.7040625 80.73832031 -28.77140625 81.12117188 -29.87109375 81.515625 C-32.80951917 82.27306886 -34.11020823 82.36448616 -36.88671875 81.29296875 C-35.83484375 80.88046875 -34.78296875 80.46796875 -33.69921875 80.04296875 C-31.13744458 78.9662071 -29.69362263 78.12074789 -27.57421875 76.23046875 C-24.20215594 73.79944672 -21.30797097 73.46769714 -17.265625 72.79296875 C-13.93584493 72.0931135 -11.2948403 70.7010903 -8.88671875 68.29296875 C-8.77873894 66.28427693 -8.74043111 64.27181348 -8.72900391 62.26025391 C-8.71361069 60.3228685 -8.71361069 60.3228685 -8.69790649 58.34634399 C-8.69446857 57.65164631 -8.69103065 56.95694862 -8.68748856 56.24119949 C-8.67573056 54.07268271 -8.65628597 51.9043679 -8.6343689 49.7359314 C-8.57264948 43.56913967 -8.51869375 37.40236704 -8.48535156 31.23535156 C-8.46442519 27.46687399 -8.4291368 23.69876157 -8.38459396 19.9304924 C-8.37041471 18.49281484 -8.36170718 17.05507264 -8.35853958 15.61732864 C-8.35364043 13.60629808 -8.32888965 11.59534538 -8.30322266 9.58447266 C-8.2951358 8.43943268 -8.28704895 7.2943927 -8.27871704 6.11465454 C-7.88671875 3.29296875 -7.88671875 3.29296875 -6.50245667 1.42103577 C-4.26415056 -0.14169248 -2.71169576 -0.04930356 0 0 Z "
          fill="#A10D15" transform="translate(493.88671875,387.70703125)"/>
    <path d="M0 0 C0.33 0 0.66 0 1 0 C1 24.75 1 49.5 1 75 C-21.44 75.33 -43.88 75.66 -67 76 C-67.33 83.59 -67.66 91.18 -68 99 C-68.99 99 -69.98 99 -71 99 C-71 90.75 -71 82.5 -71 74 C-68.91502197 73.97494385 -66.83004395 73.9498877 -64.68188477 73.92407227 C-57.80865099 73.84075808 -50.93549452 73.75205193 -44.06236362 73.66066074 C-39.89340984 73.60539364 -35.72444909 73.55196774 -31.55541992 73.50268555 C-27.53536106 73.45509765 -23.51539011 73.40275714 -19.49543571 73.34705925 C-17.95839553 73.32661034 -16.42133121 73.30790153 -14.88424873 73.29092598 C-12.73857994 73.2669378 -10.59307871 73.23687617 -8.44750977 73.20532227 C-6.6121743 73.18200584 -6.6121743 73.18200584 -4.73976135 73.15821838 C-2.08811171 73.309833 -2.08811171 73.309833 -1 72 C-0.87588418 69.76142644 -0.82196977 67.51894516 -0.79467773 65.27709961 C-0.78477814 64.5746965 -0.77487854 63.8722934 -0.76467896 63.14860535 C-0.73297878 60.81655296 -0.70827312 58.48448016 -0.68359375 56.15234375 C-0.66303156 54.53950965 -0.64203529 52.92668104 -0.62062073 51.31385803 C-0.56532408 47.06090725 -0.51594844 42.80790723 -0.46777344 38.55487061 C-0.41761369 34.21817625 -0.36189885 29.88155373 -0.30664062 25.54492188 C-0.19896625 17.03000859 -0.09754205 8.51503535 0 0 Z "
          fill="#240406" transform="translate(639,309)"/>
    <path d="M0 0 C23.76 0 47.52 0 72 0 C69.2048965 2.7951035 67.44772594 2.27548643 63.53076172 2.31884766 C62.86722687 2.32889328 62.20369202 2.3389389 61.52005005 2.34928894 C59.32327148 2.38021988 57.12661531 2.39718312 54.9296875 2.4140625 C53.40795837 2.43276623 51.88623969 2.45233904 50.36453247 2.4727478 C46.35656895 2.52415924 42.34857177 2.56373649 38.3404541 2.60089111 C33.53291301 2.64790252 28.72554009 2.70953876 23.9181366 2.76873779 C16.61215861 2.8570599 9.30621464 2.92674508 2 3 C1.67 24.12 1.34 45.24 1 67 C0.67 67 0.34 67 0 67 C0 44.89 0 22.78 0 0 Z "
          fill="#BF040D" transform="translate(533,356)"/>
    <path d="M0 0 C38.61 0 77.22 0 117 0 C117 9.9 117 19.8 117 30 C118.32 30 119.64 30 121 30 C121 31.32 121 32.64 121 34 C122.65 34 124.3 34 126 34 C125.505 34.99 125.505 34.99 125 36 C123.02 36 121.04 36 119 36 C119 34.68 119 33.36 119 32 C117.68 31.67 116.36 31.34 115 31 C115 21.1 115 11.2 115 1 C77.05 1 39.1 1 0 1 C0 0.67 0 0.34 0 0 Z "
          fill="#B0B0AF" transform="translate(336,440)"/>
    <path d="M0 0 C22.11 0 44.22 0 67 0 C67 0.99 67 1.98 67 3 C44.56 3 22.12 3 -1 3 C-0.67 2.01 -0.34 1.02 0 0 Z "
          fill="#551E20" transform="translate(104,430)"/>
    <path d="M0 0 C21.78 0 43.56 0 66 0 C66 0.99 66 1.98 66 3 C43.89 3 21.78 3 -1 3 C-0.67 2.01 -0.34 1.02 0 0 Z "
          fill="#3B1A1C" transform="translate(537,334)"/>
    <path d="M0 0 C0.33 0 0.66 0 1 0 C1.02333463 19.78379488 1.04098196 39.56758697 1.05181217 59.35139275 C1.05697393 68.53683812 1.06401434 77.72227495 1.07543945 86.90771484 C1.08538996 94.91141456 1.09185431 102.91510809 1.09408849 110.91881382 C1.09539498 115.15880354 1.0984769 119.39877556 1.10573006 123.63875961 C1.11249604 127.62610144 1.11461577 131.61341821 1.11310768 135.60076523 C1.11338375 137.06735368 1.11538546 138.53394293 1.11920547 140.00052643 C1.12415164 141.99667257 1.12239545 143.99283203 1.12025452 145.98898315 C1.12117631 147.10803984 1.1220981 148.22709652 1.12304783 149.38006401 C1 152 1 152 0 154 C-2.1875 154.52734375 -2.1875 154.52734375 -5 154.9375 C-10.22873311 155.79186816 -15.03920433 157.16266827 -20 159 C-18.57417066 156.14834132 -16.82009392 155.44120822 -14 154 C-10.921875 153.3046875 -10.921875 153.3046875 -7.75 152.875 C-4.05960582 152.64896367 -4.05960582 152.64896367 -1 151 C-0.89110269 149.05139494 -0.8531 147.09881426 -0.84178162 145.14720154 C-0.8319928 143.87528961 -0.82220398 142.60337769 -0.81211853 141.29292297 C-0.80621356 139.87033119 -0.80040317 138.44773901 -0.79467773 137.02514648 C-0.78510465 135.53733037 -0.77509491 134.049517 -0.76467896 132.56170654 C-0.73756208 128.51025963 -0.71658937 124.45880098 -0.69667697 120.40731311 C-0.6748591 116.17785661 -0.64744994 111.94843654 -0.62062073 107.7190094 C-0.57063688 99.7044292 -0.52571924 91.68982884 -0.48259836 83.67520911 C-0.43327453 74.55320729 -0.37833846 65.43124201 -0.32291877 56.30927551 C-0.20901138 37.53955091 -0.10219151 18.76979186 0 0 Z "
          fill="#811117" transform="translate(701,309)"/>
    <path d="M0 0 C0.33 0 0.66 0 1 0 C1.02887236 3.81248426 1.04675492 7.6249407 1.0625 11.4375 C1.07087891 12.52611328 1.07925781 13.61472656 1.08789062 14.73632812 C1.09111328 15.77080078 1.09433594 16.80527344 1.09765625 17.87109375 C1.10289307 18.82943115 1.10812988 19.78776855 1.11352539 20.77514648 C1 23 1 23 0 24 C-2.26991887 24.09439978 -4.54281967 24.11742226 -6.81469727 24.11352539 C-7.88293228 24.11374443 -7.88293228 24.11374443 -8.9727478 24.1139679 C-11.33733112 24.1132687 -13.70183661 24.10547606 -16.06640625 24.09765625 C-17.70165463 24.09579209 -19.33690357 24.09436818 -20.97215271 24.09336853 C-25.28434785 24.08954318 -29.59650952 24.07971275 -33.90869141 24.06866455 C-38.30565946 24.0584508 -42.70263289 24.05387099 -47.09960938 24.04882812 C-55.73309002 24.03809049 -64.36653699 24.02049356 -73 24 C-73 33.57 -73 43.14 -73 53 C-80 56 -80 56 -82.4375 55.6875 C-82.953125 55.460625 -83.46875 55.23375 -84 55 C-77.375 52 -77.375 52 -74 52 C-74 42.43 -74 32.86 -74 23 C-49.91 22.34 -25.82 21.68 -1 21 C-0.67 14.07 -0.34 7.14 0 0 Z "
          fill="#820A12" transform="translate(279,407)"/>
    <path d="M0 0 C13.53 0 27.06 0 41 0 C42.47206013 2.94412027 42.23807192 5.96285915 42.31640625 9.1953125 C42.33718735 9.90275604 42.35796844 10.61019958 42.37937927 11.33908081 C42.44481078 13.60095425 42.50372974 15.86294462 42.5625 18.125 C42.60569133 19.65756422 42.64930582 21.19011657 42.69335938 22.72265625 C42.80048555 26.48165073 42.9017709 30.24076292 43 34 C46.96 33.01 50.92 32.02 55 31 C54.67 31.66 54.34 32.32 54 33 C53.34 33 52.68 33 52 33 C52 33.66 52 34.32 52 35 C51.05125 35.268125 50.1025 35.53625 49.125 35.8125 C45.74732727 36.74986588 45.74732727 36.74986588 44 40 C46.31 39.67 48.62 39.34 51 39 C51 39.66 51 40.32 51 41 C48.36 41 45.72 41 43 41 C43 39.68 43 38.36 43 37 C42.01 37 41.02 37 40 37 C39.67 25.12 39.34 13.24 39 1 C26.13 1 13.26 1 0 1 C0 0.67 0 0.34 0 0 Z "
          fill="#BC1319" transform="translate(627,435)"/>
    <path d="M0 0 C0.99 1.485 0.99 1.485 2 3 C3.65 2.67 5.3 2.34 7 2 C6.01 2.66 5.02 3.32 4 4 C3.52061036 6.94897073 3.52061036 6.94897073 3.56762695 10.46923828 C3.55233948 11.46454056 3.55233948 11.46454056 3.53674316 12.47994995 C3.5065085 14.67682218 3.49733182 16.87325919 3.48828125 19.0703125 C3.47144222 20.59204571 3.45329303 22.11376494 3.43388367 23.63546753 C3.3862928 27.64344923 3.35654258 31.6513743 3.33044434 35.6595459 C3.30068436 39.74840486 3.2541385 43.83706844 3.20898438 47.92578125 C3.12284805 55.95042506 3.0555491 63.97508647 3 72 C3.66 72 4.32 72 5 72 C4.67 73.32 4.34 74.64 4 76 C0.50318135 71.46706087 -0.4952841 68.59684756 -0.45410156 62.89306641 C-0.45468567 62.20944031 -0.45526978 61.52581421 -0.45587158 60.82147217 C-0.45310371 58.58097025 -0.42207681 56.34182949 -0.390625 54.1015625 C-0.38315791 52.54072801 -0.37746719 50.97988411 -0.37347412 49.41903687 C-0.35825441 45.32531522 -0.31900507 41.23216778 -0.2746582 37.13867188 C-0.23362584 32.95580817 -0.21544617 28.77285102 -0.1953125 24.58984375 C-0.15250648 16.39296665 -0.08430054 8.1965549 0 0 Z "
          fill="#D3232A" transform="translate(532,356)"/>
    <path d="M0 0 C1.93166016 0.01740234 1.93166016 0.01740234 3.90234375 0.03515625 C5.19269531 0.04417969 6.48304688 0.05320312 7.8125 0.0625 C8.81152344 0.07410156 9.81054688 0.08570313 10.83984375 0.09765625 C9.83984375 2.09765625 9.83984375 2.09765625 7.46484375 3.22265625 C4.83984375 4.09765625 4.83984375 4.09765625 1.83984375 4.09765625 C1.83984375 4.75765625 1.83984375 5.41765625 1.83984375 6.09765625 C-0.80015625 6.09765625 -3.44015625 6.09765625 -6.16015625 6.09765625 C-6.49015625 7.08765625 -6.82015625 8.07765625 -7.16015625 9.09765625 C-8.72132444 9.43717244 -10.28416963 9.76898169 -11.84765625 10.09765625 C-13.15283203 10.37609375 -13.15283203 10.37609375 -14.484375 10.66015625 C-17.09728589 11.08737672 -19.51828663 11.17381826 -22.16015625 11.09765625 C-20.28515625 7.22265625 -20.28515625 7.22265625 -19.16015625 6.09765625 C-17.4939851 6.05701793 -15.8262753 6.05493525 -14.16015625 6.09765625 C-14.16015625 5.43765625 -14.16015625 4.77765625 -14.16015625 4.09765625 C-13.44988281 3.89269531 -12.73960937 3.68773437 -12.0078125 3.4765625 C-11.08871094 3.20714844 -10.16960938 2.93773437 -9.22265625 2.66015625 C-8.30613281 2.39332031 -7.38960937 2.12648438 -6.4453125 1.8515625 C-0.91915902 0.02840417 -0.91915902 0.02840417 0 0 Z "
          fill="#340909" transform="translate(693.16015625,463.90234375)"/>
    <path d="M0 0 C1.32 0 2.64 0 4 0 C4 8.58 4 17.16 4 26 C-4.25 26 -12.5 26 -21 26 C-20.67 25.34 -20.34 24.68 -20 24 C-13.4 24 -6.8 24 0 24 C0 16.08 0 8.16 0 0 Z "
          fill="#680C10" transform="translate(510,365)"/>
    <path d="M0 0 C0.99 0.495 0.99 0.495 2 1 C3.66565749 1.15222973 5.33656496 1.24917215 7.0078125 1.31640625 C7.8961377 1.35451416 8.78446289 1.39262207 9.69970703 1.43188477 C10.83005371 1.47498779 11.96040039 1.51809082 13.125 1.5625 C16.71375 1.706875 20.3025 1.85125 24 2 C24 10.58 24 19.16 24 28 C13.6875 28.375 13.6875 28.375 10.44799805 28.47802734 C9.60277588 28.5136377 8.75755371 28.54924805 7.88671875 28.5859375 C7.02264404 28.6173584 6.15856934 28.6487793 5.26831055 28.68115234 C2.72257555 28.87188037 2.72257555 28.87188037 0 31 C0.66 29.35 1.32 27.7 2 26 C11.405 25.505 11.405 25.505 21 25 C21.33 18.07 21.66 11.14 22 4 C16.63028335 4.07871318 16.63028335 4.07871318 11.26098633 4.18017578 C7.04760841 4.21122647 3.84308171 3.9561979 0 2 C0 1.34 0 0.68 0 0 Z "
          fill="#C40814" transform="translate(486,360)"/>
    <path d="M0 0 C19.14 0 38.28 0 58 0 C58 10.23 58 20.46 58 31 C58.99 31 59.98 31 61 31 C61 32.32 61 33.64 61 35 C62.32 35 63.64 35 65 35 C65 35.66 65 36.32 65 37 C63.35 37 61.7 37 60 37 C60 35.68 60 34.36 60 33 C59.01 33 58.02 33 57 33 C57 23.1 57 13.2 57 3 C56.34 3 55.68 3 55 3 C55 2.34 55 1.68 55 1 C36.85 1 18.7 1 0 1 C0 0.67 0 0.34 0 0 Z "
          fill="#E3C5C6" transform="translate(609,441)"/>
    <path d="M0 0 C0.33 0 0.66 0 1 0 C1 9.9 1 19.8 1 30 C-4.32793595 32.66396797 -9.22923603 34.66828524 -15 36 C-15 36.66 -15 37.32 -15 38 C-14.34 38.33 -13.68 38.66 -13 39 C-18.10334017 40.905247 -22.46342706 42.42589023 -28 42 C-28 41.01 -28 40.02 -28 39 C-27.17757812 38.68546875 -26.35515625 38.3709375 -25.5078125 38.046875 C-19.35414208 35.68773114 -13.21587038 33.30467516 -7.12109375 30.796875 C-5 30 -5 30 -1 29 C-0.67 19.43 -0.34 9.86 0 0 Z "
          fill="#4E0B0F" transform="translate(206,431)"/>
    <path d="M0 0 C1.65 0 3.3 0 5 0 C5 0.66 5 1.32 5 2 C36.02 2 67.04 2 99 2 C99 2.33 99 2.66 99 3 C66.66 3 34.32 3 1 3 C0.67 2.01 0.34 1.02 0 0 Z "
          fill="#CE1010" transform="translate(353,407)"/>
    <path d="M0 0 C1.14601685 0.32342377 2.29203369 0.64684753 3.47277832 0.98007202 C7.84314606 2.06740625 11.94803686 2.30571232 16.43554688 2.31884766 C17.23650787 2.32889328 18.03746887 2.3389389 18.86270142 2.34928894 C21.4813777 2.37991022 24.09995276 2.39709687 26.71875 2.4140625 C28.5457851 2.43279113 30.3728117 2.45236579 32.1998291 2.4727478 C36.98696872 2.52389596 41.77413632 2.56361397 46.56140137 2.60089111 C51.45506618 2.64103978 56.3486163 2.69208238 61.2421875 2.7421875 C70.82804423 2.83874155 80.41396598 2.92321151 90 3 C90 3.33 90 3.66 90 4 C78.85653476 4.24644343 67.71289908 4.46571945 56.56822586 4.65021229 C51.39341554 4.73673411 46.21913322 4.83264756 41.04492188 4.94995117 C36.05254999 5.062788 31.06029544 5.15105002 26.06716156 5.22220421 C24.16119593 5.25369952 22.25535603 5.29408551 20.34976959 5.34345436 C17.68250992 5.41104516 15.01655483 5.44714997 12.34863281 5.47583008 C11.5588504 5.5031572 10.76906799 5.53048431 9.95535278 5.55863953 C7.74591064 5.56330872 7.74591064 5.56330872 4 5 C1.47821045 2.47026062 1.47821045 2.47026062 0 0 Z "
          fill="#B20C15" transform="translate(537,432)"/>
    <path d="M0 0 C0.33 0 0.66 0 1 0 C1.00364563 0.86364166 1.00729126 1.72728333 1.01104736 2.61709595 C1.04896165 10.76819972 1.10585333 18.91890477 1.18390274 27.06972694 C1.22336108 31.25987914 1.25555745 35.44982171 1.27099609 39.64013672 C1.28617378 43.6863676 1.32063828 47.73202212 1.36830902 51.77799606 C1.3831115 53.31924801 1.39104037 54.86058226 1.39188385 56.40190506 C1.39425886 58.56624575 1.42137693 60.72900042 1.45410156 62.89306641 C1.46298401 64.12328522 1.47186646 65.35350403 1.48101807 66.6210022 C2.38436763 72.50254835 6.3042458 76.51229847 10 81 C8.68 81 7.36 81 6 81 C3.875 78.0625 3.875 78.0625 2 75 C1.34 74.67 0.68 74.34 0 74 C0 49.58 0 25.16 0 0 Z "
          fill="#F1AEB2" transform="translate(531,356)"/>
    <path d="M0 0 C28.05 0 56.1 0 85 0 C85 0.33 85 0.66 85 1 C57.94 1 30.88 1 3 1 C3 2.32 3 3.64 3 5 C2.01 5 1.02 5 0 5 C0 3.35 0 1.7 0 0 Z "
          fill="#4B070A" transform="translate(140,332)"/>
    <path d="M0 0 C0 0.66 0 1.32 0 2 C1.98 1.67 3.96 1.34 6 1 C5 3 5 3 2.97460938 3.85375977 C1.67233398 4.26839478 1.67233398 4.26839478 0.34375 4.69140625 C-0.59597656 4.99626953 -1.53570312 5.30113281 -2.50390625 5.61523438 C-3.49261719 5.92783203 -4.48132813 6.24042969 -5.5 6.5625 C-7.44873603 7.18624797 -9.39669827 7.8124204 -11.34375 8.44140625 C-12.21193359 8.71670166 -13.08011719 8.99199707 -13.97460938 9.27563477 C-15.96843474 9.82587271 -15.96843474 9.82587271 -17 11 C-18.66617115 11.04063832 -20.33388095 11.042721 -22 11 C-22 9.68 -22 8.36 -22 7 C-16.72 5.68 -11.44 4.36 -6 3 C-6 2.34 -6 1.68 -6 1 C-3.92446352 0.4465236 -2.15634036 0 0 0 Z "
          fill="#301D1D" transform="translate(479,463)"/>
    <path d="M0 0 C1.32 0 2.64 0 4 0 C4 7.92 4 15.84 4 24 C3.01 24 2.02 24 1 24 C-0.25248502 21.49502996 -0.11374406 19.79146726 -0.09765625 16.9921875 C-0.09443359 16.00605469 -0.09121094 15.01992188 -0.08789062 14.00390625 C-0.07951172 12.97136719 -0.07113281 11.93882812 -0.0625 10.875 C-0.05798828 9.83472656 -0.05347656 8.79445313 -0.04882812 7.72265625 C-0.03701952 5.14838038 -0.02055075 2.57421854 0 0 Z "
          fill="#2B1719" transform="translate(274,341)"/>
    <path d="M0 0 C0.33 0 0.66 0 1 0 C1 16.5 1 33 1 50 C6.94 50 12.88 50 19 50 C19.33 51.32 19.66 52.64 20 54 C19.34 54 18.68 54 18 54 C18 53.34 18 52.68 18 52 C12.06 52 6.12 52 0 52 C0 34.84 0 17.68 0 0 Z "
          fill="#BBBABA" transform="translate(493,309)"/>
    <path d="M0 0 C0.66 0 1.32 0 2 0 C2 9.9 2 19.8 2 30 C3.32 30 4.64 30 6 30 C6 31.32 6 32.64 6 34 C7.65 34 9.3 34 11 34 C10.67 34.66 10.34 35.32 10 36 C8.02 36 6.04 36 4 36 C4 34.68 4 33.36 4 32 C2.68 31.67 1.36 31.34 0 31 C0 20.77 0 10.54 0 0 Z "
          fill="#DF9E9F" transform="translate(451,440)"/>
    <path d="M0 0 C12.21 0 24.42 0 37 0 C37 0.99 37 1.98 37 3 C37.99 3.33 38.98 3.66 40 4 C38.33388095 4.042721 36.66617115 4.04063832 35 4 C34.505 3.505 34.505 3.505 34 3 C31.48119483 2.84011509 28.98657734 2.74065775 26.46484375 2.68359375 C25.33496788 2.6524221 25.33496788 2.6524221 24.18226624 2.62062073 C21.7674401 2.55504575 19.35250202 2.49620379 16.9375 2.4375 C15.30402471 2.3943223 13.6705609 2.35070827 12.03710938 2.30664062 C8.02485536 2.19935638 4.01248836 2.09811179 0 2 C0 1.34 0 0.68 0 0 Z "
          fill="#E4B2B7" transform="translate(453,304)"/>
    <path d="M0 0 C0.66 0 1.32 0 2 0 C2 10.23 2 20.46 2 31 C2.66 31 3.32 31 4 31 C4 30.34 4 29.68 4 29 C9.94 27.515 9.94 27.515 16 26 C15.67 26.66 15.34 27.32 15 28 C14.34 28 13.68 28 13 28 C13 28.66 13 29.32 13 30 C12.05125 30.268125 11.1025 30.53625 10.125 30.8125 C6.74732727 31.74986588 6.74732727 31.74986588 5 35 C8.465 34.505 8.465 34.505 12 34 C12 34.66 12 35.32 12 36 C9.36 36 6.72 36 4 36 C4 34.68 4 33.36 4 32 C3.01 32 2.02 32 1 32 C0.67 21.44 0.34 10.88 0 0 Z "
          fill="#AF3E42" transform="translate(666,440)"/>
    <path d="M0 0 C0.99 0 1.98 0 3 0 C3 8.25 3 16.5 3 25 C2.01 25 1.02 25 0 25 C0 16.75 0 8.5 0 0 Z " fill="#190A08"
          transform="translate(280,407)"/>
    <path d="M0 0 C2.95064148 -0.2208564 5.68368231 -0.28060989 8.625 -0.1875 C9.42679688 -0.17396484 10.22859375 -0.16042969 11.0546875 -0.14648438 C13.03674378 -0.11109051 15.01845551 -0.05728234 17 0 C17 0.33 17 0.66 17 1 C12.38 1.33 7.76 1.66 3 2 C2.67 4.31 2.34 6.62 2 9 C3.32 9 4.64 9 6 9 C6 9.66 6 10.32 6 11 C6.66 11.33 7.32 11.66 8 12 C4.7 11.67 1.4 11.34 -2 11 C-2.25 3.375 -2.25 3.375 0 0 Z "
          fill="#BF0916" transform="translate(138,329)"/>
    <path d="M0 0 C0.99 0 1.98 0 3 0 C2.67 10.23 2.34 20.46 2 31 C2.99 31 3.98 31 5 31 C4.67 31.66 4.34 32.32 4 33 C3.01 33 2.02 33 1 33 C-0.15927528 29.52217417 -0.11313066 26.81196743 -0.09765625 23.14453125 C-0.0962413 22.48289474 -0.09482635 21.82125824 -0.09336853 21.13957214 C-0.08777996 19.03050172 -0.07522965 16.92153823 -0.0625 14.8125 C-0.05748352 13.38086091 -0.05292087 11.94922015 -0.04882812 10.51757812 C-0.0378143 7.01168412 -0.02055755 3.5058525 0 0 Z "
          fill="#FCE1E1" transform="translate(529,304)"/>
    <path d="M0 0 C0 0.99 0 1.98 0 3 C-1.41225926 3.67595315 -2.83002905 4.34040059 -4.25 5 C-5.43335938 5.556875 -5.43335938 5.556875 -6.640625 6.125 C-9 7 -9 7 -13 7 C-13 7.66 -13 8.32 -13 9 C-14.91197039 9.70045456 -16.82980435 10.384919 -18.75 11.0625 C-19.81734375 11.44535156 -20.8846875 11.82820313 -21.984375 12.22265625 C-24.92280042 12.98010011 -26.22348948 13.07151741 -29 12 C-27.948125 11.5875 -26.89625 11.175 -25.8125 10.75 C-23.25072583 9.67323835 -21.80690388 8.82777914 -19.6875 6.9375 C-16.34389799 4.52699623 -13.52563618 4.17024044 -9.515625 3.50390625 C-6.05361834 2.81042976 -3.17682773 1.51935239 0 0 Z "
          fill="#890E15" transform="translate(486,457)"/>
    <path d="M0 0 C0.33 0 0.66 0 1 0 C1 9.24 1 18.48 1 28 C2.65 27.01 4.3 26.02 6 25 C10.32454361 22.89046653 10.32454361 22.89046653 13.3125 23.375 C14.1478125 23.684375 14.1478125 23.684375 15 24 C10.24035245 28.19968901 6.38380544 30 0 30 C0 20.1 0 10.2 0 0 Z "
          fill="#CA1E27" transform="translate(453,440)"/>
    <path d="M0 0 C0.33 0 0.66 0 1 0 C1 9.9 1 19.8 1 30 C-2.76687864 31.88343932 -4.02958963 32.22057835 -8 32 C-8 32.66 -8 33.32 -8 34 C-10.90600261 35.25664978 -12.79604584 36 -16 36 C-16 35.34 -16 34.68 -16 34 C-11.33407864 30.42279363 -6.97262499 29.7917875 -1 28 C-0.67 18.76 -0.34 9.52 0 0 Z "
          fill="#180505" transform="translate(207,433)"/>
    <path d="M0 0 C-1.32 0.33 -2.64 0.66 -4 1 C-4 1.66 -4 2.32 -4 3 C-7.62354959 4.49204983 -11.27529404 5.78376948 -15 7 C-16.03125 7.391875 -17.0625 7.78375 -18.125 8.1875 C-21.00801308 9.00226457 -22.25455345 9.05594098 -25 8 C-19.93359687 4.72173915 -14.9207467 3.04483765 -9 2 C-9 1.34 -9 0.68 -9 0 C-2.25 -1.125 -2.25 -1.125 0 0 Z "
          fill="#BDBBBC" transform="translate(208,465)"/>
    <path d="M0 0 C3.96 0 7.92 0 12 0 C11 2 11 2 8.625 3.125 C6 4 6 4 3 4 C3 4.66 3 5.32 3 6 C0.36 6 -2.28 6 -5 6 C-5.33 6.99 -5.66 7.98 -6 9 C-8.0625 9.6875 -8.0625 9.6875 -10 10 C-10 9.01 -10 8.02 -10 7 C-8.68 7 -7.36 7 -6 7 C-6 6.34 -6 5.68 -6 5 C-5.01 5 -4.02 5 -3 5 C-3 4.34 -3 3.68 -3 3 C-0.36 3 2.28 3 5 3 C5 2.34 5 1.68 5 1 C3.02 1.33 1.04 1.66 -1 2 C-0.67 1.34 -0.34 0.68 0 0 Z "
          fill="#3B2D2D" transform="translate(692,464)"/>
    <path d="M0 0 C0.33 0 0.66 0 1 0 C1 9.57 1 19.14 1 29 C2.32 29 3.64 29 5 29 C5 29.99 5 30.98 5 32 C3.35 31.67 1.7 31.34 0 31 C-1.48785872 10.5419426 -1.48785872 10.5419426 -1 1 C-0.67 0.67 -0.34 0.34 0 0 Z "
          fill="#FBF6F4" transform="translate(97,401)"/>
    <path d="M0 0 C-2.87854637 2.33088789 -5.61984828 3.83224797 -9.0625 5.1875 C-9.91972656 5.53167969 -10.77695313 5.87585938 -11.66015625 6.23046875 C-14 7 -14 7 -17 7 C-17 7.99 -17 8.98 -17 10 C-15.35 10 -13.7 10 -12 10 C-14.64738916 11.4606285 -15.89448334 12 -19 12 C-19 9.69 -19 7.38 -19 5 C-17.96875 4.731875 -16.9375 4.46375 -15.875 4.1875 C-13.27720108 3.46095262 -11.36493429 2.66302636 -8.9375 1.375 C-5.69492687 -0.14280019 -3.53525953 -0.25251854 0 0 Z "
          fill="#842025" transform="translate(195,463)"/>
    <path d="M0 0 C0.66 0 1.32 0 2 0 C2 8.25 2 16.5 2 25 C0.68 24.67 -0.64 24.34 -2 24 C-1.67 23.67 -1.34 23.34 -1 23 C-0.84259395 21.29436222 -0.74906608 19.58272756 -0.68359375 17.87109375 C-0.64169922 16.83662109 -0.59980469 15.80214844 -0.55664062 14.73632812 C-0.51732422 13.64771484 -0.47800781 12.55910156 -0.4375 11.4375 C-0.37272461 9.7987793 -0.37272461 9.7987793 -0.30664062 8.12695312 C-0.20017932 5.41810436 -0.09816484 2.70916008 0 0 Z "
          fill="#1E080A" transform="translate(512,366)"/>
    <path d="M0 0 C6.27 0 12.54 0 19 0 C19.33 1.32 19.66 2.64 20 4 C19.34 4 18.68 4 18 4 C18 3.34 18 2.68 18 2 C12.06 2 6.12 2 0 2 C0 1.34 0 0.68 0 0 Z "
          fill="#F8B7BB" transform="translate(493,359)"/>
    <path d="M0 0 C0.33 0 0.66 0 1 0 C0.98428955 0.66531738 0.9685791 1.33063477 0.95239258 2.01611328 C0.88974403 5.0523212 0.85091491 8.08839272 0.8125 11.125 C0.78736328 12.17171875 0.76222656 13.2184375 0.73632812 14.296875 C0.68182665 20.03769678 0.87096836 23.99026431 4 29 C4 29.66 4 30.32 4 31 C3.01 31 2.02 31 1 31 C-0.81272608 23.77462703 -1.14536795 17.28503963 -0.625 9.875 C-0.56828125 8.91851562 -0.5115625 7.96203125 -0.453125 6.9765625 C-0.31353568 4.65007382 -0.16235793 2.32499126 0 0 Z "
          fill="#D4010E" transform="translate(321,401)"/>
    <path d="M0 0 C0.33 0 0.66 0 1 0 C1 8.91 1 17.82 1 27 C1.66 27 2.32 27 3 27 C2.67 28.32 2.34 29.64 2 31 C-0.77503732 27.0768901 -1.33276637 24.59559757 -1.07421875 19.82421875 C-1.01943359 18.66728516 -0.96464844 17.51035156 -0.90820312 16.31835938 C-0.83537109 15.12017578 -0.76253906 13.92199219 -0.6875 12.6875 C-0.62626953 11.46998047 -0.56503906 10.25246094 -0.50195312 8.99804688 C-0.34899102 5.99763637 -0.18117919 2.99881711 0 0 Z "
          fill="#D10B16" transform="translate(534,401)"/>
    <path d="M0 0 C0.66 0 1.32 0 2 0 C2.77956232 4.0474246 3.07796501 7.72205649 2.87890625 11.8359375 C2.83056641 12.89941406 2.78222656 13.96289062 2.73242188 15.05859375 C2.67634766 16.15300781 2.62027344 17.24742187 2.5625 18.375 C2.48418945 20.05142578 2.48418945 20.05142578 2.40429688 21.76171875 C2.27519184 24.50813492 2.14025096 27.25413422 2 30 C1.67 30 1.34 30 1 30 C0.67 20.1 0.34 10.2 0 0 Z "
          fill="#CA0409" transform="translate(453,436)"/>
    <path d="M0 0 C0 1.32 0 2.64 0 4 C-3.63 4.33 -7.26 4.66 -11 5 C-10.67 4.01 -10.34 3.02 -10 2 C-8.22265625 1.26953125 -8.22265625 1.26953125 -6.0625 0.8125 C-4.99708984 0.57466797 -4.99708984 0.57466797 -3.91015625 0.33203125 C-2 0 -2 0 0 0 Z "
          fill="#2A1D1E" transform="translate(682,470)"/>
    <path d="M0 0 C0 0.99 0 1.98 0 3 C-4.455 3.495 -4.455 3.495 -9 4 C-9 3.01 -9 2.02 -9 1 C-5.8035914 -0.06546953 -3.34252724 -0.07427838 0 0 Z "
          fill="#1F1110" transform="translate(187,469)"/>
    <path d="M0 0 C-1 1 -1 1 -3.5625 1.0625 C-4.7690625 1.0315625 -4.7690625 1.0315625 -6 1 C-6 1.66 -6 2.32 -6 3 C-8.90600261 4.25664978 -10.79604584 5 -14 5 C-14 4.34 -14 3.68 -14 3 C-9.47005419 -0.23567558 -5.41073981 -1.80357994 0 0 Z "
          fill="#200F0F" transform="translate(205,464)"/>
    <path d="M0 0 C-1.32 0.33 -2.64 0.66 -4 1 C-4 1.66 -4 2.32 -4 3 C-7.3 3.33 -10.6 3.66 -14 4 C-13.67 3.34 -13.34 2.68 -13 2 C-11.68 2 -10.36 2 -9 2 C-9 1.34 -9 0.68 -9 0 C-2.25 -1.125 -2.25 -1.125 0 0 Z "
          fill="#777473" transform="translate(208,465)"/>
    <path d="M0 0 C0.33 0 0.66 0 1 0 C1 4.62 1 9.24 1 14 C2.32 14 3.64 14 5 14 C5 14.99 5 15.98 5 17 C3.35 16.67 1.7 16.34 0 16 C0 10.72 0 5.44 0 0 Z "
          fill="#F8E1E0" transform="translate(97,416)"/>
    <path d="M0 0 C2.97 0.33 5.94 0.66 9 1 C6.64031256 3.09749995 5.45383006 3.96905704 2.25 4.1875 C1.13625 4.0946875 1.13625 4.0946875 0 4 C0 2.68 0 1.36 0 0 Z "
          fill="#322827" transform="translate(457,470)"/>
    <path d="M0 0 C-0.66 0 -1.32 0 -2 0 C-2 0.66 -2 1.32 -2 2 C-1.34 2.33 -0.68 2.66 0 3 C-1.98 3.33 -3.96 3.66 -6 4 C-6 3.34 -6 2.68 -6 2 C-7.32 1.67 -8.64 1.34 -10 1 C-3.71428571 -1.42857143 -3.71428571 -1.42857143 0 0 Z "
          fill="#3A171A" transform="translate(193,467)"/>
    <path d="M0 0 C0 0.66 0 1.32 0 2 C-2.64 2 -5.28 2 -8 2 C-8.33 2.99 -8.66 3.98 -9 5 C-11.0625 5.6875 -11.0625 5.6875 -13 6 C-13 5.01 -13 4.02 -13 3 C-11.68 3 -10.36 3 -9 3 C-9 2.34 -9 1.68 -9 1 C-2.25 0 -2.25 0 0 0 Z "
          fill="#7F7B7C" transform="translate(695,468)"/>
    <path d="M0 0 C2.77400546 1.38700273 3.42972831 3.34261714 5 6 C6.31037934 7.68477344 7.63823078 9.35648543 9 11 C7.68 11 6.36 11 5 11 C4.16151196 9.54462432 3.32936066 8.08559627 2.5 6.625 C1.80390625 5.40683594 1.80390625 5.40683594 1.09375 4.1640625 C0 2 0 2 0 0 Z "
          fill="#E69E9F" transform="translate(532,426)"/>
    <path d="M0 0 C0.33 0.66 0.66 1.32 1 2 C-1.06756277 4.7972908 -2.14440371 5.02692273 -5.6875 5.6875 C-6.780625 5.790625 -7.87375 5.89375 -9 6 C-9 5.34 -9 4.68 -9 4 C-8.43410156 3.79503906 -7.86820312 3.59007812 -7.28515625 3.37890625 C-6.55167969 3.10949219 -5.81820313 2.84007812 -5.0625 2.5625 C-4.33160156 2.29566406 -3.60070312 2.02882813 -2.84765625 1.75390625 C-1.01694322 1.14613052 -1.01694322 1.14613052 0 0 Z "
          fill="#210D0C" transform="translate(488,459)"/>
    <path d="M0 0 C5.94 1.485 5.94 1.485 12 3 C12 3.33 12 3.66 12 4 C6.71502591 5.14507772 6.71502591 5.14507772 4 5 C1.5 2.5625 1.5 2.5625 0 0 Z "
          fill="#AC1822" transform="translate(537,432)"/>
    <path d="M0 0 C1.65 0 3.3 0 5 0 C5 0.66 5 1.32 5 2 C7.64 2 10.28 2 13 2 C13 2.33 13 2.66 13 3 C9.04 3 5.08 3 1 3 C0.67 2.01 0.34 1.02 0 0 Z "
          fill="#B70C14" transform="translate(353,407)"/>
    <path d="M0 0 C0.33 0 0.66 0 1 0 C1 1.65 1 3.3 1 5 C2.32 4.67 3.64 4.34 5 4 C5 5.32 5 6.64 5 8 C3.35 7.67 1.7 7.34 0 7 C0 4.69 0 2.38 0 0 Z "
          fill="#930E17" transform="translate(139,362)"/>
    <path d="M0 0 C-2.77079887 3.80984844 -6.62868145 4.06840752 -11 5 C-8.77884349 0.55768697 -4.65018221 -0.39858705 0 0 Z "
          fill="#970E16" transform="translate(692,463)"/>
    <path d="M0 0 C0.99 0.495 0.99 0.495 2 1 C2 1.66 2 2.32 2 3 C2.66 3 3.32 3 4 3 C5.625 5.5 5.625 5.5 7 8 C5.35 7.67 3.7 7.34 2 7 C1.34 4.69 0.68 2.38 0 0 Z "
          fill="#E19793" transform="translate(105,385)"/>
    <path d="M0 0 C1.43836751 0.11458693 2.87570966 0.24209116 4.3125 0.375 C5.51326172 0.47941406 5.51326172 0.47941406 6.73828125 0.5859375 C9 1 9 1 12 3 C7.06729471 4.6442351 4.45975807 3.18615592 0 1 C0 0.67 0 0.34 0 0 Z "
          fill="#D50715" transform="translate(567,409)"/>
    <path d="M0 0 C1.9375 0.3125 1.9375 0.3125 4 1 C4.33 1.99 4.66 2.98 5 4 C5.99 4.33 6.98 4.66 8 5 C6.35 5 4.7 5 3 5 C2.67 4.01 2.34 3.02 2 2 C1.34 2 0.68 2 0 2 C0 1.34 0 0.68 0 0 Z "
          fill="#C41419" transform="translate(107,386)"/>
    <path d="M0 0 C3.96 0 7.92 0 12 0 C12 0.33 12 0.66 12 1 C8.04 1.66 4.08 2.32 0 3 C0 2.01 0 1.02 0 0 Z "
          fill="#220C0A" transform="translate(355,334)"/>
    <path d="M0 0 C0.66 0 1.32 0 2 0 C5 5.75 5 5.75 5 8 C4.01 8 3.02 8 2 8 C1.34 5.36 0.68 2.72 0 0 Z " fill="#CA1016"
          transform="translate(320,424)"/>
</svg>
